<svg version="1.1" viewBox="0.0 0.0 530.6981627296587 529.498687664042" fill="none" stroke="none" stroke-linecap="square" stroke-miterlimit="10" xmlns:xlink="http://www.w3.org/1999/xlink" xmlns="http://www.w3.org/2000/svg"><clipPath id="p.0"><path d="m0 0l530.6982 0l0 529.49866l-530.6982 0l0 -529.49866z" clip-rule="nonzero"/></clipPath><g clip-path="url(#p.0)"><path fill="#000000" fill-opacity="0.0" d="m0 0l530.6982 0l0 529.49866l-530.6982 0z" fill-rule="evenodd"/><path fill="#d9ead3" d="m9.574803 8.0l63.60452 0l0 63.412407l-63.60452 0z" fill-rule="evenodd"/><path stroke="#000000" stroke-width="3.0" stroke-linejoin="round" stroke-linecap="butt" d="m9.574803 8.0l63.60452 0l0 63.412407l-63.60452 0z" fill-rule="evenodd"/><path fill="#d9ead3" d="m73.17932 8.0l64.396805 0l0 63.412407l-64.396805 0z" fill-rule="evenodd"/><path stroke="#000000" stroke-width="3.0" stroke-linejoin="round" stroke-linecap="butt" d="m73.17932 8.0l64.396805 0l0 63.412407l-64.396805 0z" fill-rule="evenodd"/><path fill="#d9ead3" d="m137.57613 8.0l64.39679 0l0 63.412407l-64.39679 0z" fill-rule="evenodd"/><path stroke="#000000" stroke-width="3.0" stroke-linejoin="round" stroke-linecap="butt" d="m137.57613 8.0l64.39679 0l0 63.412407l-64.39679 0z" fill-rule="evenodd"/><path fill="#d9ead3" d="m201.97292 8.0l63.604507 0l0 63.412407l-63.604507 0z" fill-rule="evenodd"/><path stroke="#000000" stroke-width="3.0" stroke-linejoin="round" stroke-linecap="butt" d="m201.97292 8.0l63.604507 0l0 63.412407l-63.604507 0z" fill-rule="evenodd"/><path fill="#d9ead3" d="m9.574803 71.41241l63.60452 0l0 64.19259l-63.60452 0z" fill-rule="evenodd"/><path stroke="#000000" stroke-width="3.0" stroke-linejoin="round" stroke-linecap="butt" d="m9.574803 71.41241l63.60452 0l0 64.19259l-63.60452 0z" fill-rule="evenodd"/><path fill="#d9ead3" d="m73.17932 71.41241l64.396805 0l0 64.19259l-64.396805 0z" fill-rule="evenodd"/><path stroke="#000000" stroke-width="3.0" stroke-linejoin="round" stroke-linecap="butt" d="m73.17932 71.41241l64.396805 0l0 64.19259l-64.396805 0z" fill-rule="evenodd"/><path fill="#d9ead3" d="m137.57613 71.41241l64.39679 0l0 64.19259l-64.39679 0z" fill-rule="evenodd"/><path stroke="#000000" stroke-width="3.0" stroke-linejoin="round" stroke-linecap="butt" d="m137.57613 71.41241l64.39679 0l0 64.19259l-64.39679 0z" fill-rule="evenodd"/><path fill="#d9ead3" d="m201.97292 71.41241l63.604507 0l0 64.19259l-63.604507 0z" fill-rule="evenodd"/><path stroke="#000000" stroke-width="3.0" stroke-linejoin="round" stroke-linecap="butt" d="m201.97292 71.41241l63.604507 0l0 64.19259l-63.604507 0z" fill-rule="evenodd"/><path fill="#d9ead3" d="m9.574803 135.6032l63.60452 0l0 63.801605l-63.60452 0z" fill-rule="evenodd"/><path stroke="#000000" stroke-width="3.0" stroke-linejoin="round" stroke-linecap="butt" d="m9.574803 135.6032l63.60452 0l0 63.801605l-63.60452 0z" fill-rule="evenodd"/><path fill="#d9ead3" d="m73.17932 135.6032l64.396805 0l0 63.801605l-64.396805 0z" fill-rule="evenodd"/><path stroke="#000000" stroke-width="3.0" stroke-linejoin="round" stroke-linecap="butt" d="m73.17932 135.6032l64.396805 0l0 63.801605l-64.396805 0z" fill-rule="evenodd"/><path fill="#d9ead3" d="m137.57613 135.6032l64.39679 0l0 63.801605l-64.39679 0z" fill-rule="evenodd"/><path stroke="#000000" stroke-width="3.0" stroke-linejoin="round" stroke-linecap="butt" d="m137.57613 135.6032l64.39679 0l0 63.801605l-64.39679 0z" fill-rule="evenodd"/><path fill="#d9ead3" d="m201.97292 135.6032l63.604507 0l0 63.801605l-63.604507 0z" fill-rule="evenodd"/><path stroke="#000000" stroke-width="3.0" stroke-linejoin="round" stroke-linecap="butt" d="m201.97292 135.6032l63.604507 0l0 63.801605l-63.604507 0z" fill-rule="evenodd"/><path fill="#d9ead3" d="m9.574803 199.4048l63.60452 0l0 64.58656l-63.60452 0z" fill-rule="evenodd"/><path stroke="#000000" stroke-width="3.0" stroke-linejoin="round" stroke-linecap="butt" d="m9.574803 199.4048l63.60452 0l0 64.58656l-63.60452 0z" fill-rule="evenodd"/><path fill="#d9ead3" d="m73.17932 199.4048l64.396805 0l0 64.58656l-64.396805 0z" fill-rule="evenodd"/><path stroke="#000000" stroke-width="3.0" stroke-linejoin="round" stroke-linecap="butt" d="m73.17932 199.4048l64.396805 0l0 64.58656l-64.396805 0z" fill-rule="evenodd"/><path fill="#d9ead3" d="m137.57613 199.4048l64.39679 0l0 64.58656l-64.39679 0z" fill-rule="evenodd"/><path stroke="#000000" stroke-width="3.0" stroke-linejoin="round" stroke-linecap="butt" d="m137.57613 199.4048l64.39679 0l0 64.58656l-64.39679 0z" fill-rule="evenodd"/><path fill="#d9ead3" d="m201.97292 199.4048l63.604507 0l0 64.58656l-63.604507 0z" fill-rule="evenodd"/><path stroke="#000000" stroke-width="3.0" stroke-linejoin="round" stroke-linecap="butt" d="m201.97292 199.4048l63.604507 0l0 64.58656l-63.604507 0z" fill-rule="evenodd"/><path fill="#d9ead3" d="m265.5748 8.0l63.212616 0l0 63.412407l-63.212616 0z" fill-rule="evenodd"/><path stroke="#000000" stroke-width="3.0" stroke-linejoin="round" stroke-linecap="butt" d="m265.5748 8.0l63.212616 0l0 63.412407l-63.212616 0z" fill-rule="evenodd"/><path fill="#d9ead3" d="m328.7874 8.0l64.0 0l0 63.412407l-64.0 0z" fill-rule="evenodd"/><path stroke="#000000" stroke-width="3.0" stroke-linejoin="round" stroke-linecap="butt" d="m328.7874 8.0l64.0 0l0 63.412407l-64.0 0z" fill-rule="evenodd"/><path fill="#d9ead3" d="m392.7874 8.0l64.0 0l0 63.412407l-64.0 0z" fill-rule="evenodd"/><path stroke="#000000" stroke-width="3.0" stroke-linejoin="round" stroke-linecap="butt" d="m392.7874 8.0l64.0 0l0 63.412407l-64.0 0z" fill-rule="evenodd"/><path fill="#d9ead3" d="m456.7874 8.0l63.212585 0l0 63.412407l-63.212585 0z" fill-rule="evenodd"/><path stroke="#000000" stroke-width="3.0" stroke-linejoin="round" stroke-linecap="butt" d="m456.7874 8.0l63.212585 0l0 63.412407l-63.212585 0z" fill-rule="evenodd"/><path fill="#d9ead3" d="m265.5748 71.41241l63.212616 0l0 64.19259l-63.212616 0z" fill-rule="evenodd"/><path stroke="#000000" stroke-width="3.0" stroke-linejoin="round" stroke-linecap="butt" d="m265.5748 71.41241l63.212616 0l0 64.19259l-63.212616 0z" fill-rule="evenodd"/><path fill="#d9ead3" d="m328.7874 71.41241l64.0 0l0 64.19259l-64.0 0z" fill-rule="evenodd"/><path stroke="#000000" stroke-width="3.0" stroke-linejoin="round" stroke-linecap="butt" d="m328.7874 71.41241l64.0 0l0 64.19259l-64.0 0z" fill-rule="evenodd"/><path fill="#d9ead3" d="m392.7874 71.41241l64.0 0l0 64.19259l-64.0 0z" fill-rule="evenodd"/><path stroke="#000000" stroke-width="3.0" stroke-linejoin="round" stroke-linecap="butt" d="m392.7874 71.41241l64.0 0l0 64.19259l-64.0 0z" fill-rule="evenodd"/><path fill="#d9ead3" d="m456.7874 71.41241l63.212585 0l0 64.19259l-63.212585 0z" fill-rule="evenodd"/><path stroke="#000000" stroke-width="3.0" stroke-linejoin="round" stroke-linecap="butt" d="m456.7874 71.41241l63.212585 0l0 64.19259l-63.212585 0z" fill-rule="evenodd"/><path fill="#d9ead3" d="m265.5748 135.6032l63.212616 0l0 63.801605l-63.212616 0z" fill-rule="evenodd"/><path stroke="#000000" stroke-width="3.0" stroke-linejoin="round" stroke-linecap="butt" d="m265.5748 135.6032l63.212616 0l0 63.801605l-63.212616 0z" fill-rule="evenodd"/><path fill="#d9ead3" d="m328.7874 135.6032l64.0 0l0 63.801605l-64.0 0z" fill-rule="evenodd"/><path stroke="#000000" stroke-width="3.0" stroke-linejoin="round" stroke-linecap="butt" d="m328.7874 135.6032l64.0 0l0 63.801605l-64.0 0z" fill-rule="evenodd"/><path fill="#d9ead3" d="m392.7874 135.6032l64.0 0l0 63.801605l-64.0 0z" fill-rule="evenodd"/><path stroke="#000000" stroke-width="3.0" stroke-linejoin="round" stroke-linecap="butt" d="m392.7874 135.6032l64.0 0l0 63.801605l-64.0 0z" fill-rule="evenodd"/><path fill="#d9ead3" d="m456.7874 135.6032l63.212585 0l0 63.801605l-63.212585 0z" fill-rule="evenodd"/><path stroke="#000000" stroke-width="3.0" stroke-linejoin="round" stroke-linecap="butt" d="m456.7874 135.6032l63.212585 0l0 63.801605l-63.212585 0z" fill-rule="evenodd"/><path fill="#d9ead3" d="m265.5748 199.4048l63.212616 0l0 64.58656l-63.212616 0z" fill-rule="evenodd"/><path stroke="#000000" stroke-width="3.0" stroke-linejoin="round" stroke-linecap="butt" d="m265.5748 199.4048l63.212616 0l0 64.58656l-63.212616 0z" fill-rule="evenodd"/><path fill="#d9ead3" d="m328.7874 199.4048l64.0 0l0 64.58656l-64.0 0z" fill-rule="evenodd"/><path stroke="#000000" stroke-width="3.0" stroke-linejoin="round" stroke-linecap="butt" d="m328.7874 199.4048l64.0 0l0 64.58656l-64.0 0z" fill-rule="evenodd"/><path fill="#d9ead3" d="m392.7874 199.4048l64.0 0l0 64.58656l-64.0 0z" fill-rule="evenodd"/><path stroke="#000000" stroke-width="3.0" stroke-linejoin="round" stroke-linecap="butt" d="m392.7874 199.4048l64.0 0l0 64.58656l-64.0 0z" fill-rule="evenodd"/><path fill="#d9ead3" d="m456.7874 199.4048l63.212585 0l0 64.58656l-63.212585 0z" fill-rule="evenodd"/><path stroke="#000000" stroke-width="3.0" stroke-linejoin="round" stroke-linecap="butt" d="m456.7874 199.4048l63.212585 0l0 64.58656l-63.212585 0z" fill-rule="evenodd"/><path fill="#d9ead3" d="m9.574803 264.0l63.60452 0l0 63.60959l-63.60452 0z" fill-rule="evenodd"/><path stroke="#000000" stroke-width="3.0" stroke-linejoin="round" stroke-linecap="butt" d="m9.574803 264.0l63.60452 0l0 63.60959l-63.60452 0z" fill-rule="evenodd"/><path fill="#d9ead3" d="m73.17932 264.0l64.396805 0l0 63.60959l-64.396805 0z" fill-rule="evenodd"/><path stroke="#000000" stroke-width="3.0" stroke-linejoin="round" stroke-linecap="butt" d="m73.17932 264.0l64.396805 0l0 63.60959l-64.396805 0z" fill-rule="evenodd"/><path fill="#d9ead3" d="m137.57613 264.0l64.39679 0l0 63.60959l-64.39679 0z" fill-rule="evenodd"/><path stroke="#000000" stroke-width="3.0" stroke-linejoin="round" stroke-linecap="butt" d="m137.57613 264.0l64.39679 0l0 63.60959l-64.39679 0z" fill-rule="evenodd"/><path fill="#d9ead3" d="m201.97292 264.0l63.604507 0l0 63.60959l-63.604507 0z" fill-rule="evenodd"/><path stroke="#000000" stroke-width="3.0" stroke-linejoin="round" stroke-linecap="butt" d="m201.97292 264.0l63.604507 0l0 63.60959l-63.604507 0z" fill-rule="evenodd"/><path fill="#d9ead3" d="m9.574803 327.6096l63.60452 0l0 64.39221l-63.60452 0z" fill-rule="evenodd"/><path stroke="#000000" stroke-width="3.0" stroke-linejoin="round" stroke-linecap="butt" d="m9.574803 327.6096l63.60452 0l0 64.39221l-63.60452 0z" fill-rule="evenodd"/><path fill="#d9ead3" d="m73.17932 327.6096l64.396805 0l0 64.39221l-64.396805 0z" fill-rule="evenodd"/><path stroke="#000000" stroke-width="3.0" stroke-linejoin="round" stroke-linecap="butt" d="m73.17932 327.6096l64.396805 0l0 64.39221l-64.396805 0z" fill-rule="evenodd"/><path fill="#d9ead3" d="m137.57613 327.6096l64.39679 0l0 64.39221l-64.39679 0z" fill-rule="evenodd"/><path stroke="#000000" stroke-width="3.0" stroke-linejoin="round" stroke-linecap="butt" d="m137.57613 327.6096l64.39679 0l0 64.39221l-64.39679 0z" fill-rule="evenodd"/><path fill="#d9ead3" d="m201.97292 327.6096l63.604507 0l0 64.39221l-63.604507 0z" fill-rule="evenodd"/><path stroke="#000000" stroke-width="3.0" stroke-linejoin="round" stroke-linecap="butt" d="m201.97292 327.6096l63.604507 0l0 64.39221l-63.604507 0z" fill-rule="evenodd"/><path fill="#d9ead3" d="m9.574803 392.0l63.60452 0l0 64.0l-63.60452 0z" fill-rule="evenodd"/><path stroke="#000000" stroke-width="3.0" stroke-linejoin="round" stroke-linecap="butt" d="m9.574803 392.0l63.60452 0l0 64.0l-63.60452 0z" fill-rule="evenodd"/><path fill="#d9ead3" d="m73.17932 392.0l64.396805 0l0 64.0l-64.396805 0z" fill-rule="evenodd"/><path stroke="#000000" stroke-width="3.0" stroke-linejoin="round" stroke-linecap="butt" d="m73.17932 392.0l64.396805 0l0 64.0l-64.396805 0z" fill-rule="evenodd"/><path fill="#d9ead3" d="m137.57613 392.0l64.39679 0l0 64.0l-64.39679 0z" fill-rule="evenodd"/><path stroke="#000000" stroke-width="3.0" stroke-linejoin="round" stroke-linecap="butt" d="m137.57613 392.0l64.39679 0l0 64.0l-64.39679 0z" fill-rule="evenodd"/><path fill="#d9ead3" d="m201.97292 392.0l63.604507 0l0 64.0l-63.604507 0z" fill-rule="evenodd"/><path stroke="#000000" stroke-width="3.0" stroke-linejoin="round" stroke-linecap="butt" d="m201.97292 392.0l63.604507 0l0 64.0l-63.604507 0z" fill-rule="evenodd"/><path fill="#d9ead3" d="m9.574803 456.0l63.60452 0l0 64.787415l-63.60452 0z" fill-rule="evenodd"/><path stroke="#000000" stroke-width="3.0" stroke-linejoin="round" stroke-linecap="butt" d="m9.574803 456.0l63.60452 0l0 64.787415l-63.60452 0z" fill-rule="evenodd"/><path fill="#d9ead3" d="m73.17932 456.0l64.396805 0l0 64.787415l-64.396805 0z" fill-rule="evenodd"/><path stroke="#000000" stroke-width="3.0" stroke-linejoin="round" stroke-linecap="butt" d="m73.17932 456.0l64.396805 0l0 64.787415l-64.396805 0z" fill-rule="evenodd"/><path fill="#d9ead3" d="m137.57613 456.0l64.39679 0l0 64.787415l-64.39679 0z" fill-rule="evenodd"/><path stroke="#000000" stroke-width="3.0" stroke-linejoin="round" stroke-linecap="butt" d="m137.57613 456.0l64.39679 0l0 64.787415l-64.39679 0z" fill-rule="evenodd"/><path fill="#d9ead3" d="m201.97292 456.0l63.604507 0l0 64.787415l-63.604507 0z" fill-rule="evenodd"/><path stroke="#000000" stroke-width="3.0" stroke-linejoin="round" stroke-linecap="butt" d="m201.97292 456.0l63.604507 0l0 64.787415l-63.604507 0z" fill-rule="evenodd"/><path fill="#d9ead3" d="m265.5748 264.0l63.212616 0l0 63.60959l-63.212616 0z" fill-rule="evenodd"/><path stroke="#000000" stroke-width="3.0" stroke-linejoin="round" stroke-linecap="butt" d="m265.5748 264.0l63.212616 0l0 63.60959l-63.212616 0z" fill-rule="evenodd"/><path fill="#d9ead3" d="m328.7874 264.0l64.0 0l0 63.60959l-64.0 0z" fill-rule="evenodd"/><path stroke="#000000" stroke-width="3.0" stroke-linejoin="round" stroke-linecap="butt" d="m328.7874 264.0l64.0 0l0 63.60959l-64.0 0z" fill-rule="evenodd"/><path fill="#d9ead3" d="m392.7874 264.0l64.0 0l0 63.60959l-64.0 0z" fill-rule="evenodd"/><path stroke="#000000" stroke-width="3.0" stroke-linejoin="round" stroke-linecap="butt" d="m392.7874 264.0l64.0 0l0 63.60959l-64.0 0z" fill-rule="evenodd"/><path fill="#d9ead3" d="m456.7874 264.0l63.212585 0l0 63.60959l-63.212585 0z" fill-rule="evenodd"/><path stroke="#000000" stroke-width="3.0" stroke-linejoin="round" stroke-linecap="butt" d="m456.7874 264.0l63.212585 0l0 63.60959l-63.212585 0z" fill-rule="evenodd"/><path fill="#d9ead3" d="m265.5748 327.6096l63.212616 0l0 64.39221l-63.212616 0z" fill-rule="evenodd"/><path stroke="#000000" stroke-width="3.0" stroke-linejoin="round" stroke-linecap="butt" d="m265.5748 327.6096l63.212616 0l0 64.39221l-63.212616 0z" fill-rule="evenodd"/><path fill="#d9ead3" d="m328.7874 327.6096l64.0 0l0 64.39221l-64.0 0z" fill-rule="evenodd"/><path stroke="#000000" stroke-width="3.0" stroke-linejoin="round" stroke-linecap="butt" d="m328.7874 327.6096l64.0 0l0 64.39221l-64.0 0z" fill-rule="evenodd"/><path fill="#d9ead3" d="m392.7874 327.6096l64.0 0l0 64.39221l-64.0 0z" fill-rule="evenodd"/><path stroke="#000000" stroke-width="3.0" stroke-linejoin="round" stroke-linecap="butt" d="m392.7874 327.6096l64.0 0l0 64.39221l-64.0 0z" fill-rule="evenodd"/><path fill="#d9ead3" d="m456.7874 327.6096l63.212585 0l0 64.39221l-63.212585 0z" fill-rule="evenodd"/><path stroke="#000000" stroke-width="3.0" stroke-linejoin="round" stroke-linecap="butt" d="m456.7874 327.6096l63.212585 0l0 64.39221l-63.212585 0z" fill-rule="evenodd"/><path fill="#d9ead3" d="m265.5748 392.0l63.212616 0l0 64.0l-63.212616 0z" fill-rule="evenodd"/><path stroke="#000000" stroke-width="3.0" stroke-linejoin="round" stroke-linecap="butt" d="m265.5748 392.0l63.212616 0l0 64.0l-63.212616 0z" fill-rule="evenodd"/><path fill="#d9ead3" d="m328.7874 392.0l64.0 0l0 64.0l-64.0 0z" fill-rule="evenodd"/><path stroke="#000000" stroke-width="3.0" stroke-linejoin="round" stroke-linecap="butt" d="m328.7874 392.0l64.0 0l0 64.0l-64.0 0z" fill-rule="evenodd"/><path fill="#d9ead3" d="m392.7874 392.0l64.0 0l0 64.0l-64.0 0z" fill-rule="evenodd"/><path stroke="#000000" stroke-width="3.0" stroke-linejoin="round" stroke-linecap="butt" d="m392.7874 392.0l64.0 0l0 64.0l-64.0 0z" fill-rule="evenodd"/><path fill="#d9ead3" d="m456.7874 392.0l63.212585 0l0 64.0l-63.212585 0z" fill-rule="evenodd"/><path stroke="#000000" stroke-width="3.0" stroke-linejoin="round" stroke-linecap="butt" d="m456.7874 392.0l63.212585 0l0 64.0l-63.212585 0z" fill-rule="evenodd"/><path fill="#d9ead3" d="m265.5748 456.0l63.212616 0l0 64.787415l-63.212616 0z" fill-rule="evenodd"/><path stroke="#000000" stroke-width="3.0" stroke-linejoin="round" stroke-linecap="butt" d="m265.5748 456.0l63.212616 0l0 64.787415l-63.212616 0z" fill-rule="evenodd"/><path fill="#d9ead3" d="m328.7874 456.0l64.0 0l0 64.787415l-64.0 0z" fill-rule="evenodd"/><path stroke="#000000" stroke-width="3.0" stroke-linejoin="round" stroke-linecap="butt" d="m328.7874 456.0l64.0 0l0 64.787415l-64.0 0z" fill-rule="evenodd"/><path fill="#d9ead3" d="m392.7874 456.0l64.0 0l0 64.787415l-64.0 0z" fill-rule="evenodd"/><path stroke="#000000" stroke-width="3.0" stroke-linejoin="round" stroke-linecap="butt" d="m392.7874 456.0l64.0 0l0 64.787415l-64.0 0z" fill-rule="evenodd"/><path fill="#d9ead3" d="m456.7874 456.0l63.212585 0l0 64.787415l-63.212585 0z" fill-rule="evenodd"/><path stroke="#000000" stroke-width="3.0" stroke-linejoin="round" stroke-linecap="butt" d="m456.7874 456.0l63.212585 0l0 64.787415l-63.212585 0z" fill-rule="evenodd"/><path fill="#000000" fill-opacity="0.0" d="m38.47769 40.774277l67.2126 0" fill-rule="evenodd"/><path stroke="#a4c2f4" stroke-width="3.0" stroke-linejoin="round" stroke-linecap="butt" d="m38.47769 40.774277l49.2126 0" fill-rule="evenodd"/><path fill="#a4c2f4" stroke="#a4c2f4" stroke-width="3.0" stroke-linecap="butt" d="m87.69029 45.729477l13.614288 -4.9552l-13.614288 -4.9551964z" fill-rule="evenodd"/><path fill="#000000" fill-opacity="0.0" d="m6.703412 18.860893l64.0 0l0 42.015747l-64.0 0z" fill-rule="evenodd"/><path fill="#000000" d="m23.225279 40.59339l0 -1.9375l8.578125 0l0 1.9375l-8.578125 0zm10.959379 5.1875l0 -1.5625q1.703125 -1.4375 2.96875 -2.59375q1.28125 -1.171875 1.984375 -2.15625q0.71875 -0.984375 0.71875 -1.828125q0 -0.875 -0.515625 -1.328125q-0.5 -0.453125 -1.421875 -0.453125q-0.703125 0 -1.296875 0.359375q-0.59375 0.359375 -1.09375 0.84375l-1.46875 -1.46875q0.90625 -0.953125 1.890625 -1.421875q0.984375 -0.46875 2.34375 -0.46875q1.234375 0 2.171875 0.46875q0.9375 0.46875 1.46875 1.328125q0.53125 0.84375 0.53125 1.984375q0 1.0 -0.609375 2.03125q-0.59375 1.015625 -1.59375 2.0625q-1.0 1.03125 -2.140625 2.03125q0.5 -0.046875 1.09375 -0.09375q0.609375 -0.046875 1.046875 -0.046875l2.828125 0l0 2.3125l-8.90625 0zm16.021881 0.21875q-0.90625 0 -1.765625 -0.328125q-0.859375 -0.34375 -1.546875 -1.046875q-0.671875 -0.703125 -1.078125 -1.8125q-0.390625 -1.109375 -0.390625 -2.6875q0 -1.65625 0.421875 -2.859375q0.4375 -1.21875 1.15625 -2.0q0.71875 -0.796875 1.625 -1.171875q0.921875 -0.390625 1.90625 -0.390625q1.25 0 2.203125 0.421875q0.96875 0.421875 1.5625 1.0l-1.4375 1.640625q-0.375 -0.328125 -0.9375 -0.578125q-0.546875 -0.25 -1.15625 -0.25q-0.765625 0 -1.40625 0.390625q-0.640625 0.390625 -1.03125 1.3125q-0.390625 0.921875 -0.390625 2.484375q0 1.484375 0.3125 2.3125q0.3125 0.828125 0.828125 1.171875q0.515625 0.34375 1.078125 0.34375q0.484375 0 0.890625 -0.203125q0.40625 -0.203125 0.65625 -0.625q0.265625 -0.421875 0.265625 -1.09375q0 -0.921875 -0.484375 -1.3125q-0.484375 -0.40625 -1.28125 -0.40625q-0.515625 0 -1.109375 0.28125q-0.578125 0.28125 -1.15625 0.984375l-0.109375 -1.78125q0.640625 -0.6875 1.46875 -1.046875q0.828125 -0.375 1.515625 -0.375q1.015625 0 1.84375 0.390625q0.84375 0.390625 1.328125 1.203125q0.484375 0.8125 0.484375 2.0625q0 1.234375 -0.59375 2.125q-0.578125 0.890625 -1.546875 1.375q-0.953125 0.46875 -2.125 0.46875z" fill-rule="nonzero"/><path fill="#000000" fill-opacity="0.0" d="m169.56955 41.267715l64.755905 0" fill-rule="evenodd"/><path stroke="#a4c2f4" stroke-width="3.0" stroke-linejoin="round" stroke-linecap="butt" d="m169.56955 41.267715l46.755905 0" fill-rule="evenodd"/><path fill="#a4c2f4" stroke="#a4c2f4" stroke-width="3.0" stroke-linecap="butt" d="m216.32545 46.222916l13.614304 -4.9552l-13.614304 -4.9551964z" fill-rule="evenodd"/><path fill="#000000" fill-opacity="0.0" d="m103.80577 40.304462l-62.173225 62.204723" fill-rule="evenodd"/><path stroke="#a4c2f4" stroke-width="3.0" stroke-linejoin="round" stroke-linecap="butt" d="m103.80577 40.304462l-49.44853 49.473576" fill-rule="evenodd"/><path fill="#a4c2f4" stroke="#a4c2f4" stroke-width="3.0" stroke-linecap="butt" d="m50.852505 86.27508l-6.1195793 13.132164l13.129059 -6.126236z" fill-rule="evenodd"/><path fill="#000000" fill-opacity="0.0" d="m41.632545 169.4042l127.937004 -127.90552" fill-rule="evenodd"/><path stroke="#a4c2f4" stroke-width="3.0" stroke-linejoin="round" stroke-linecap="butt" d="m41.632545 169.4042l115.20753 -115.17917" fill-rule="evenodd"/><path fill="#a4c2f4" stroke="#a4c2f4" stroke-width="3.0" stroke-linecap="butt" d="m160.34349 57.72933l6.1245117 -13.12986l-13.131363 6.1212883z" fill-rule="evenodd"/><path fill="#000000" fill-opacity="0.0" d="m41.574802 99.7664l0 69.6378" fill-rule="evenodd"/><path stroke="#a4c2f4" stroke-width="3.0" stroke-linejoin="round" stroke-linecap="butt" d="m41.574802 99.7664l0 51.637802" fill-rule="evenodd"/><path fill="#a4c2f4" stroke="#a4c2f4" stroke-width="3.0" stroke-linecap="butt" d="m36.619606 151.4042l4.9551964 13.614288l4.9551964 -13.614288z" fill-rule="evenodd"/><path fill="#000000" fill-opacity="0.0" d="m105.6063 486.42258l381.92126 -381.92126" fill-rule="evenodd"/><path stroke="#a4c2f4" stroke-width="3.0" stroke-linejoin="round" stroke-linecap="butt" d="m105.6063 486.42258l369.19333 -369.19333" fill-rule="evenodd"/><path fill="#a4c2f4" stroke="#a4c2f4" stroke-width="3.0" stroke-linecap="butt" d="m478.3035 120.733086l6.1228943 -13.130608l-13.130615 6.122902z" fill-rule="evenodd"/><path fill="#000000" fill-opacity="0.0" d="m42.06824 232.02231l0 66.61417" fill-rule="evenodd"/><path stroke="#a4c2f4" stroke-width="3.0" stroke-linejoin="round" stroke-linecap="butt" d="m42.06824 232.02231l0 48.614166" fill-rule="evenodd"/><path fill="#a4c2f4" stroke="#a4c2f4" stroke-width="3.0" stroke-linecap="butt" d="m37.113045 280.63647l4.9551964 13.614288l4.9551964 -13.614288z" fill-rule="evenodd"/><path fill="#000000" fill-opacity="0.0" d="m234.32545 40.304462l-192.34645 192.34647" fill-rule="evenodd"/><path stroke="#a4c2f4" stroke-width="3.0" stroke-linejoin="round" stroke-linecap="butt" d="m234.32545 40.304462l-179.61853 179.61855" fill-rule="evenodd"/><path fill="#a4c2f4" stroke="#a4c2f4" stroke-width="3.0" stroke-linecap="butt" d="m51.20307 216.41914l-6.1229057 13.130615l13.130611 -6.1229095z" fill-rule="evenodd"/><path fill="#000000" fill-opacity="0.0" d="m41.632545 297.0735l255.21262 -255.21259" fill-rule="evenodd"/><path stroke="#a4c2f4" stroke-width="3.0" stroke-linejoin="round" stroke-linecap="butt" d="m41.632545 297.0735l242.48468 -242.48468" fill-rule="evenodd"/><path fill="#a4c2f4" stroke="#a4c2f4" stroke-width="3.0" stroke-linecap="butt" d="m287.62106 58.092667l6.122925 -13.130611l-13.130615 6.1229057z" fill-rule="evenodd"/><path fill="#000000" fill-opacity="0.0" d="m363.7979 41.860893l-321.48032 321.48032" fill-rule="evenodd"/><path stroke="#a4c2f4" stroke-width="3.0" stroke-linejoin="round" stroke-linecap="butt" d="m363.7979 41.860893l-308.7524 308.75238" fill-rule="evenodd"/><path fill="#a4c2f4" stroke="#a4c2f4" stroke-width="3.0" stroke-linecap="butt" d="m51.541653 347.10944l-6.1229057 13.130615l13.130615 -6.122925z" fill-rule="evenodd"/><path fill="#000000" fill-opacity="0.0" d="m296.84515 41.67979l64.75589 0" fill-rule="evenodd"/><path stroke="#a4c2f4" stroke-width="3.0" stroke-linejoin="round" stroke-linecap="butt" d="m296.84515 41.67979l46.75589 0" fill-rule="evenodd"/><path fill="#a4c2f4" stroke="#a4c2f4" stroke-width="3.0" stroke-linecap="butt" d="m343.60104 46.634987l13.614288 -4.9551964l-13.614288 -4.9551964z" fill-rule="evenodd"/><path fill="#000000" fill-opacity="0.0" d="m41.637794 363.73227l0 58.960632" fill-rule="evenodd"/><path stroke="#a4c2f4" stroke-width="3.0" stroke-linejoin="round" stroke-linecap="butt" d="m41.637794 363.73227l0 40.960632" fill-rule="evenodd"/><path fill="#a4c2f4" stroke="#a4c2f4" stroke-width="3.0" stroke-linecap="butt" d="m36.6826 404.6929l4.9551964 13.614319l4.9551964 -13.614319z" fill-rule="evenodd"/><path fill="#000000" fill-opacity="0.0" d="m41.6063 422.6929l382.3622 -382.36218" fill-rule="evenodd"/><path stroke="#a4c2f4" stroke-width="3.0" stroke-linejoin="round" stroke-linecap="butt" d="m41.6063 422.6929l369.63428 -369.63428" fill-rule="evenodd"/><path fill="#a4c2f4" stroke="#a4c2f4" stroke-width="3.0" stroke-linecap="butt" d="m414.74445 56.562485l6.1228943 -13.130611l-13.130615 6.122902z" fill-rule="evenodd"/><path fill="#000000" fill-opacity="0.0" d="m423.9685 41.097115l64.75589 0" fill-rule="evenodd"/><path stroke="#a4c2f4" stroke-width="3.0" stroke-linejoin="round" stroke-linecap="butt" d="m423.9685 41.097115l46.75589 0" fill-rule="evenodd"/><path fill="#a4c2f4" stroke="#a4c2f4" stroke-width="3.0" stroke-linecap="butt" d="m470.7244 46.05231l13.614319 -4.9551964l-13.614319 -4.9552z" fill-rule="evenodd"/><path fill="#000000" fill-opacity="0.0" d="m489.6483 41.03018l-448.59842 448.59842" fill-rule="evenodd"/><path stroke="#a4c2f4" stroke-width="3.0" stroke-linejoin="round" stroke-linecap="butt" d="m489.6483 41.03018l-435.87048 435.87048" fill-rule="evenodd"/><path fill="#a4c2f4" stroke="#a4c2f4" stroke-width="3.0" stroke-linecap="butt" d="m50.273937 473.39682l-6.1229057 13.130615l13.130611 -6.1228943z" fill-rule="evenodd"/><path fill="#000000" fill-opacity="0.0" d="m42.317585 486.88452l61.6378 0" fill-rule="evenodd"/><path stroke="#a4c2f4" stroke-width="3.0" stroke-linejoin="round" stroke-linecap="butt" d="m42.317585 486.88452l43.6378 0" fill-rule="evenodd"/><path fill="#a4c2f4" stroke="#a4c2f4" stroke-width="3.0" stroke-linecap="butt" d="m85.95538 491.83972l13.614288 -4.9552l-13.614288 -4.9552z" fill-rule="evenodd"/><path fill="#000000" fill-opacity="0.0" d="m232.4029 488.61417l256.7244 -256.7244" fill-rule="evenodd"/><path stroke="#a4c2f4" stroke-width="3.0" stroke-linejoin="round" stroke-linecap="butt" d="m232.4029 488.61417l243.99646 -243.99649" fill-rule="evenodd"/><path fill="#a4c2f4" stroke="#a4c2f4" stroke-width="3.0" stroke-linecap="butt" d="m479.90323 248.12154l6.1228943 -13.130615l-13.130615 6.1229095z" fill-rule="evenodd"/><path fill="#000000" fill-opacity="0.0" d="m487.52756 105.75328l0 61.480316" fill-rule="evenodd"/><path stroke="#a4c2f4" stroke-width="3.0" stroke-linejoin="round" stroke-linecap="butt" d="m487.52756 105.75328l0 43.480316" fill-rule="evenodd"/><path fill="#a4c2f4" stroke="#a4c2f4" stroke-width="3.0" stroke-linecap="butt" d="m482.57236 149.2336l4.9552 13.614288l4.9552 -13.614288z" fill-rule="evenodd"/><path fill="#000000" fill-opacity="0.0" d="m486.14172 169.80971l-317.22833 317.25983" fill-rule="evenodd"/><path stroke="#a4c2f4" stroke-width="3.0" stroke-linejoin="round" stroke-linecap="butt" d="m486.14172 169.80971l-304.50104 304.5313" fill-rule="evenodd"/><path fill="#a4c2f4" stroke="#a4c2f4" stroke-width="3.0" stroke-linecap="butt" d="m178.13664 470.8373l-6.1222534 13.13092l13.13031 -6.1235657z" fill-rule="evenodd"/><path fill="#000000" fill-opacity="0.0" d="m488.7244 298.6378l-190.36218 190.3937" fill-rule="evenodd"/><path stroke="#a4c2f4" stroke-width="3.0" stroke-linejoin="round" stroke-linecap="butt" d="m488.7244 298.6378l-177.63531 177.66473" fill-rule="evenodd"/><path fill="#a4c2f4" stroke="#a4c2f4" stroke-width="3.0" stroke-linecap="butt" d="m307.58493 472.79895l-6.121826 13.131134l13.130127 -6.123993z" fill-rule="evenodd"/><path fill="#000000" fill-opacity="0.0" d="m362.2362 490.01837l126.677185 -126.677155" fill-rule="evenodd"/><path stroke="#a4c2f4" stroke-width="3.0" stroke-linejoin="round" stroke-linecap="butt" d="m362.2362 490.01837l113.94925 -113.94922" fill-rule="evenodd"/><path fill="#a4c2f4" stroke="#a4c2f4" stroke-width="3.0" stroke-linecap="butt" d="m479.68933 379.57297l6.1228943 -13.130585l-13.130615 6.1228943z" fill-rule="evenodd"/><path fill="#000000" fill-opacity="0.0" d="m487.59055 424.99213l-63.62204 63.62204" fill-rule="evenodd"/><path stroke="#a4c2f4" stroke-width="3.0" stroke-linejoin="round" stroke-linecap="butt" d="m487.59055 424.99213l-50.894104 50.894104" fill-rule="evenodd"/><path fill="#a4c2f4" stroke="#a4c2f4" stroke-width="3.0" stroke-linecap="butt" d="m433.19257 472.3824l-6.1228943 13.130615l13.130615 -6.1228943z" fill-rule="evenodd"/><path fill="#000000" fill-opacity="0.0" d="m428.4147 486.88452l56.850403 0" fill-rule="evenodd"/><path stroke="#a4c2f4" stroke-width="3.0" stroke-linejoin="round" stroke-linecap="butt" d="m428.4147 486.88452l38.850403 0" fill-rule="evenodd"/><path fill="#a4c2f4" stroke="#a4c2f4" stroke-width="3.0" stroke-linecap="butt" d="m467.2651 491.83972l13.614288 -4.9552l-13.614288 -4.9552z" fill-rule="evenodd"/><path fill="#000000" fill-opacity="0.0" d="m489.6483 234.58923l0 61.480316" fill-rule="evenodd"/><path stroke="#a4c2f4" stroke-width="3.0" stroke-linejoin="round" stroke-linecap="butt" d="m489.6483 234.58923l0 43.480316" fill-rule="evenodd"/><path fill="#a4c2f4" stroke="#a4c2f4" stroke-width="3.0" stroke-linecap="butt" d="m484.69308 278.06955l4.9552 13.614288l4.9552 -13.614288z" fill-rule="evenodd"/><path fill="#000000" fill-opacity="0.0" d="m489.5748 363.09317l0 61.480316" fill-rule="evenodd"/><path stroke="#a4c2f4" stroke-width="3.0" stroke-linejoin="round" stroke-linecap="butt" d="m489.5748 363.09317l0 43.480316" fill-rule="evenodd"/><path fill="#a4c2f4" stroke="#a4c2f4" stroke-width="3.0" stroke-linecap="butt" d="m484.6196 406.5735l4.9552 13.614288l4.9552 -13.614288z" fill-rule="evenodd"/><path fill="#000000" fill-opacity="0.0" d="m170.7559 486.88452l61.637802 0" fill-rule="evenodd"/><path stroke="#a4c2f4" stroke-width="3.0" stroke-linejoin="round" stroke-linecap="butt" d="m170.7559 486.88452l43.637802 0" fill-rule="evenodd"/><path fill="#a4c2f4" stroke="#a4c2f4" stroke-width="3.0" stroke-linecap="butt" d="m214.3937 491.83972l13.614288 -4.9552l-13.614288 -4.9552z" fill-rule="evenodd"/><path fill="#000000" fill-opacity="0.0" d="m298.75592 489.6299l61.637787 0" fill-rule="evenodd"/><path stroke="#a4c2f4" stroke-width="3.0" stroke-linejoin="round" stroke-linecap="butt" d="m298.75592 489.6299l43.637787 0" fill-rule="evenodd"/><path fill="#a4c2f4" stroke="#a4c2f4" stroke-width="3.0" stroke-linecap="butt" d="m342.3937 494.5851l13.614288 -4.9552l-13.614288 -4.9552z" fill-rule="evenodd"/><path fill="#000000" fill-opacity="0.0" d="m73.57481 18.860893l63.999992 0l0 42.015747l-63.999992 0z" fill-rule="evenodd"/><path fill="#000000" d="m95.69355 40.59339l0 -1.9375l8.578125 0l0 1.9375l-8.578125 0zm15.084381 5.40625q-1.0 0 -1.84375 -0.21875q-0.828125 -0.203125 -1.484375 -0.578125q-0.640625 -0.375 -1.09375 -0.875l1.265625 -1.734375q0.609375 0.515625 1.34375 0.859375q0.75 0.328125 1.546875 0.328125q0.640625 0 1.140625 -0.15625q0.5 -0.15625 0.78125 -0.46875q0.296875 -0.328125 0.296875 -0.765625q0 -0.53125 -0.3125 -0.90625q-0.3125 -0.390625 -1.09375 -0.59375q-0.765625 -0.203125 -2.171875 -0.203125l0 -1.9375q1.171875 0 1.859375 -0.203125q0.703125 -0.203125 1.015625 -0.5625q0.3125 -0.359375 0.3125 -0.828125q0 -0.625 -0.46875 -0.953125q-0.453125 -0.34375 -1.28125 -0.34375q-0.6875 0 -1.296875 0.265625q-0.609375 0.265625 -1.21875 0.78125l-1.375 -1.6875q0.875 -0.703125 1.875 -1.109375q1.015625 -0.40625 2.15625 -0.40625q1.28125 0 2.265625 0.390625q0.984375 0.375 1.53125 1.09375q0.5625 0.71875 0.5625 1.765625q0 0.921875 -0.59375 1.578125q-0.59375 0.640625 -1.671875 1.0625l0 0.0625q0.75 0.21875 1.359375 0.59375q0.609375 0.375 0.953125 0.953125q0.34375 0.578125 0.34375 1.34375q0 1.109375 -0.65625 1.890625q-0.65625 0.765625 -1.71875 1.171875q-1.0625 0.390625 -2.328125 0.390625z" fill-rule="nonzero"/><path fill="#000000" fill-opacity="0.0" d="m137.5748 18.860893l64.0 0l0 42.015747l-64.0 0z" fill-rule="evenodd"/><path fill="#000000" d="m159.69354 40.59339l0 -1.9375l8.578125 0l0 1.9375l-8.578125 0zm15.787506 5.40625q-0.90625 0 -1.765625 -0.328125q-0.859375 -0.34375 -1.546875 -1.046875q-0.671875 -0.703125 -1.078125 -1.8125q-0.390625 -1.109375 -0.390625 -2.6875q0 -1.65625 0.421875 -2.859375q0.4375 -1.21875 1.15625 -2.0q0.71875 -0.796875 1.625 -1.171875q0.921875 -0.390625 1.90625 -0.390625q1.25 0 2.203125 0.421875q0.96875 0.421875 1.5625 1.0l-1.4375 1.640625q-0.375 -0.328125 -0.9375 -0.578125q-0.546875 -0.25 -1.15625 -0.25q-0.765625 0 -1.40625 0.390625q-0.640625 0.390625 -1.03125 1.3125q-0.390625 0.921875 -0.390625 2.484375q0 1.484375 0.3125 2.3125q0.3125 0.828125 0.828125 1.171875q0.515625 0.34375 1.078125 0.34375q0.484375 0 0.890625 -0.203125q0.40625 -0.203125 0.65625 -0.625q0.265625 -0.421875 0.265625 -1.09375q0 -0.921875 -0.484375 -1.3125q-0.484375 -0.40625 -1.28125 -0.40625q-0.515625 0 -1.109375 0.28125q-0.578125 0.28125 -1.15625 0.984375l-0.109375 -1.78125q0.640625 -0.6875 1.46875 -1.046875q0.828125 -0.375 1.515625 -0.375q1.015625 0 1.84375 0.390625q0.84375 0.390625 1.328125 1.203125q0.484375 0.8125 0.484375 2.0625q0 1.234375 -0.59375 2.125q-0.578125 0.890625 -1.546875 1.375q-0.953125 0.46875 -2.125 0.46875z" fill-rule="nonzero"/><path fill="#000000" fill-opacity="0.0" d="m201.5748 18.860893l64.0 0l0 42.015747l-64.0 0z" fill-rule="evenodd"/><path fill="#000000" d="m229.05605 45.78089l0 -1.5625q1.703125 -1.4375 2.96875 -2.59375q1.28125 -1.171875 1.984375 -2.15625q0.71875 -0.984375 0.71875 -1.828125q0 -0.875 -0.515625 -1.328125q-0.5 -0.453125 -1.421875 -0.453125q-0.703125 0 -1.296875 0.359375q-0.59375 0.359375 -1.09375 0.84375l-1.46875 -1.46875q0.90625 -0.953125 1.890625 -1.421875q0.984375 -0.46875 2.34375 -0.46875q1.234375 0 2.171875 0.46875q0.9375 0.46875 1.46875 1.328125q0.53125 0.84375 0.53125 1.984375q0 1.0 -0.609375 2.03125q-0.59375 1.015625 -1.59375 2.0625q-1.0 1.03125 -2.140625 2.03125q0.5 -0.046875 1.09375 -0.09375q0.609375 -0.046875 1.046875 -0.046875l2.828125 0l0 2.3125l-8.90625 0z" fill-rule="nonzero"/><path fill="#000000" fill-opacity="0.0" d="m265.5748 18.860893l64.0 0l0 42.015747l-64.0 0z" fill-rule="evenodd"/><path fill="#000000" d="m293.05606 45.78089l0 -1.5625q1.703125 -1.4375 2.96875 -2.59375q1.28125 -1.171875 1.984375 -2.15625q0.71875 -0.984375 0.71875 -1.828125q0 -0.875 -0.515625 -1.328125q-0.5 -0.453125 -1.421875 -0.453125q-0.703125 0 -1.296875 0.359375q-0.59375 0.359375 -1.09375 0.84375l-1.46875 -1.46875q0.90625 -0.953125 1.890625 -1.421875q0.984375 -0.46875 2.34375 -0.46875q1.234375 0 2.171875 0.46875q0.9375 0.46875 1.46875 1.328125q0.53125 0.84375 0.53125 1.984375q0 1.0 -0.609375 2.03125q-0.59375 1.015625 -1.59375 2.0625q-1.0 1.03125 -2.140625 2.03125q0.5 -0.046875 1.09375 -0.09375q0.609375 -0.046875 1.046875 -0.046875l2.828125 0l0 2.3125l-8.90625 0z" fill-rule="nonzero"/><path fill="#000000" fill-opacity="0.0" d="m329.5748 18.860893l64.0 0l0 42.015747l-64.0 0z" fill-rule="evenodd"/><path fill="#000000" d="m351.69354 40.59339l0 -1.9375l8.578125 0l0 1.9375l-8.578125 0zm11.350006 5.1875l0 -2.21875l3.203125 0l0 -6.84375l-2.640625 0l0 -1.703125q0.796875 -0.125 1.390625 -0.265625q0.59375 -0.140625 1.046875 -0.328125q0.46875 -0.203125 0.921875 -0.484375l2.015625 0l0 9.625l2.6875 0l0 2.21875l-8.625 0z" fill-rule="nonzero"/><path fill="#000000" fill-opacity="0.0" d="m393.5748 18.860893l64.0 0l0 42.015747l-64.0 0z" fill-rule="evenodd"/><path fill="#000000" d="m425.5717 45.99964q-1.359375 0 -2.390625 -0.71875q-1.015625 -0.71875 -1.59375 -2.09375q-0.5625 -1.375 -0.5625 -3.375q0 -3.046875 1.25 -4.578125q1.25 -1.53125 3.296875 -1.53125q2.078125 0 3.3125 1.53125q1.25 1.53125 1.25 4.578125q0 2.0 -0.578125 3.375q-0.5625 1.375 -1.578125 2.09375q-1.015625 0.71875 -2.40625 0.71875zm0 -2.125q0.59375 0 1.0625 -0.375q0.484375 -0.375 0.765625 -1.265625q0.28125 -0.890625 0.28125 -2.421875q0 -1.546875 -0.28125 -2.40625q-0.28125 -0.875 -0.765625 -1.21875q-0.46875 -0.34375 -1.0625 -0.34375q-0.578125 0 -1.0625 0.34375q-0.484375 0.34375 -0.765625 1.21875q-0.28125 0.859375 -0.28125 2.40625q0 1.53125 0.28125 2.421875q0.28125 0.890625 0.765625 1.265625q0.484375 0.375 1.0625 0.375zm0 -2.6875q-0.578125 0 -0.984375 -0.390625q-0.40625 -0.390625 -0.40625 -1.015625q0 -0.65625 0.40625 -1.03125q0.40625 -0.390625 0.984375 -0.390625q0.59375 0 1.0 0.390625q0.40625 0.375 0.40625 1.03125q0 0.625 -0.40625 1.015625q-0.40625 0.390625 -1.0 0.390625z" fill-rule="nonzero"/><path fill="#000000" fill-opacity="0.0" d="m9.574803 83.27821l64.0 0l0 42.015747l-64.0 0z" fill-rule="evenodd"/><path fill="#000000" d="m41.571674 110.41696q-1.359375 0 -2.390625 -0.71875q-1.015625 -0.71875 -1.59375 -2.09375q-0.5625 -1.375 -0.5625 -3.375q0 -3.046875 1.25 -4.578125q1.25 -1.53125 3.296875 -1.53125q2.078125 0 3.3125 1.53125q1.25 1.53125 1.25 4.578125q0 2.0 -0.578125 3.375q-0.5625 1.375 -1.578125 2.09375q-1.015625 0.71875 -2.40625 0.71875zm0 -2.125q0.59375 0 1.0625 -0.375q0.484375 -0.375 0.765625 -1.265625q0.28125 -0.890625 0.28125 -2.421875q0 -1.546875 -0.28125 -2.40625q-0.28125 -0.875 -0.765625 -1.21875q-0.46875 -0.34375 -1.0625 -0.34375q-0.578125 0 -1.0625 0.34375q-0.484375 0.34375 -0.765625 1.21875q-0.28125 0.859375 -0.28125 2.40625q0 1.53125 0.28125 2.421875q0.28125 0.890625 0.765625 1.265625q0.484375 0.375 1.0625 0.375zm0 -2.6875q-0.578125 0 -0.984375 -0.390625q-0.40625 -0.390625 -0.40625 -1.015625q0 -0.65625 0.40625 -1.03125q0.40625 -0.390625 0.984375 -0.390625q0.59375 0 1.0 0.390625q0.40625 0.375 0.40625 1.03125q0 0.625 -0.40625 1.015625q-0.40625 0.390625 -1.0 0.390625z" fill-rule="nonzero"/><path fill="#000000" fill-opacity="0.0" d="m73.57481 83.27821l63.999992 0l0 42.015747l-63.999992 0z" fill-rule="evenodd"/><path fill="#000000" d="m95.69355 105.01071l0 -1.9375l8.578125 0l0 1.9375l-8.578125 0zm10.959381 5.1875l0 -1.5625q1.703125 -1.4375 2.96875 -2.59375q1.28125 -1.171875 1.984375 -2.15625q0.71875 -0.984375 0.71875 -1.828125q0 -0.875 -0.515625 -1.328125q-0.5 -0.453125 -1.421875 -0.453125q-0.703125 0 -1.296875 0.359375q-0.59375 0.359375 -1.09375 0.84375l-1.46875 -1.46875q0.90625 -0.953125 1.890625 -1.421875q0.984375 -0.46875 2.34375 -0.46875q1.234375 0 2.171875 0.46875q0.9375 0.46875 1.46875 1.328125q0.53125 0.84375 0.53125 1.984375q0 1.0 -0.609375 2.03125q-0.59375 1.015625 -1.59375 2.0625q-1.0 1.03125 -2.140625 2.03125q0.5 -0.046875 1.09375 -0.09375q0.609375 -0.046875 1.046875 -0.046875l2.828125 0l0 2.3125l-8.90625 0z" fill-rule="nonzero"/><path fill="#000000" fill-opacity="0.0" d="m137.5748 83.27821l64.0 0l0 42.015747l-64.0 0z" fill-rule="evenodd"/><path fill="#000000" d="m159.69354 105.01071l0 -1.9375l8.578125 0l0 1.9375l-8.578125 0zm16.240631 5.1875l0 -6.921875q0 -0.5625 0.03125 -1.296875q0.046875 -0.734375 0.0625 -1.296875l-0.078125 0q-0.296875 0.484375 -0.640625 1.0q-0.34375 0.5 -0.640625 1.015625l-1.796875 2.578125l7.109375 0l0 2.09375l-9.75 0l0 -1.890625l4.9375 -7.125l3.328125 0l0 11.84375l-2.5625 0z" fill-rule="nonzero"/><path fill="#000000" fill-opacity="0.0" d="m201.5748 83.27821l64.0 0l0 42.015747l-64.0 0z" fill-rule="evenodd"/><path fill="#000000" d="m229.44667 110.19821l0 -2.21875l3.203125 0l0 -6.84375l-2.640625 0l0 -1.703125q0.796875 -0.125 1.390625 -0.265625q0.59375 -0.140625 1.046875 -0.328125q0.46875 -0.203125 0.921875 -0.484375l2.015625 0l0 9.625l2.6875 0l0 2.21875l-8.625 0z" fill-rule="nonzero"/><path fill="#000000" fill-opacity="0.0" d="m265.5748 83.27821l64.0 0l0 42.015747l-64.0 0z" fill-rule="evenodd"/><path fill="#000000" d="m293.4467 110.19821l0 -2.21875l3.203125 0l0 -6.84375l-2.640625 0l0 -1.703125q0.796875 -0.125 1.390625 -0.265625q0.59375 -0.140625 1.046875 -0.328125q0.46875 -0.203125 0.921875 -0.484375l2.015625 0l0 9.625l2.6875 0l0 2.21875l-8.625 0z" fill-rule="nonzero"/><path fill="#000000" fill-opacity="0.0" d="m393.5748 83.27821l64.0 0l0 42.015747l-64.0 0z" fill-rule="evenodd"/><path fill="#000000" d="m425.5717 110.41696q-1.359375 0 -2.390625 -0.71875q-1.015625 -0.71875 -1.59375 -2.09375q-0.5625 -1.375 -0.5625 -3.375q0 -3.046875 1.25 -4.578125q1.25 -1.53125 3.296875 -1.53125q2.078125 0 3.3125 1.53125q1.25 1.53125 1.25 4.578125q0 2.0 -0.578125 3.375q-0.5625 1.375 -1.578125 2.09375q-1.015625 0.71875 -2.40625 0.71875zm0 -2.125q0.59375 0 1.0625 -0.375q0.484375 -0.375 0.765625 -1.265625q0.28125 -0.890625 0.28125 -2.421875q0 -1.546875 -0.28125 -2.40625q-0.28125 -0.875 -0.765625 -1.21875q-0.46875 -0.34375 -1.0625 -0.34375q-0.578125 0 -1.0625 0.34375q-0.484375 0.34375 -0.765625 1.21875q-0.28125 0.859375 -0.28125 2.40625q0 1.53125 0.28125 2.421875q0.28125 0.890625 0.765625 1.265625q0.484375 0.375 1.0625 0.375zm0 -2.6875q-0.578125 0 -0.984375 -0.390625q-0.40625 -0.390625 -0.40625 -1.015625q0 -0.65625 0.40625 -1.03125q0.40625 -0.390625 0.984375 -0.390625q0.59375 0 1.0 0.390625q0.40625 0.375 0.40625 1.03125q0 0.625 -0.40625 1.015625q-0.40625 0.390625 -1.0 0.390625z" fill-rule="nonzero"/><path fill="#000000" fill-opacity="0.0" d="m329.5748 83.27821l64.0 0l0 42.015747l-64.0 0z" fill-rule="evenodd"/><path fill="#000000" d="m361.5717 110.41696q-1.359375 0 -2.390625 -0.71875q-1.015625 -0.71875 -1.59375 -2.09375q-0.5625 -1.375 -0.5625 -3.375q0 -3.046875 1.25 -4.578125q1.25 -1.53125 3.296875 -1.53125q2.078125 0 3.3125 1.53125q1.25 1.53125 1.25 4.578125q0 2.0 -0.578125 3.375q-0.5625 1.375 -1.578125 2.09375q-1.015625 0.71875 -2.40625 0.71875zm0 -2.125q0.59375 0 1.0625 -0.375q0.484375 -0.375 0.765625 -1.265625q0.28125 -0.890625 0.28125 -2.421875q0 -1.546875 -0.28125 -2.40625q-0.28125 -0.875 -0.765625 -1.21875q-0.46875 -0.34375 -1.0625 -0.34375q-0.578125 0 -1.0625 0.34375q-0.484375 0.34375 -0.765625 1.21875q-0.28125 0.859375 -0.28125 2.40625q0 1.53125 0.28125 2.421875q0.28125 0.890625 0.765625 1.265625q0.484375 0.375 1.0625 0.375zm0 -2.6875q-0.578125 0 -0.984375 -0.390625q-0.40625 -0.390625 -0.40625 -1.015625q0 -0.65625 0.40625 -1.03125q0.40625 -0.390625 0.984375 -0.390625q0.59375 0 1.0 0.390625q0.40625 0.375 0.40625 1.03125q0 0.625 -0.40625 1.015625q-0.40625 0.390625 -1.0 0.390625z" fill-rule="nonzero"/><path fill="#000000" fill-opacity="0.0" d="m456.0 83.27821l64.0 0l0 42.015747l-64.0 0z" fill-rule="evenodd"/><path fill="#000000" d="m487.9969 110.41696q-1.359375 0 -2.390625 -0.71875q-1.015625 -0.71875 -1.59375 -2.09375q-0.5625 -1.375 -0.5625 -3.375q0 -3.046875 1.25 -4.578125q1.25 -1.53125 3.296875 -1.53125q2.078125 0 3.3125 1.53125q1.25 1.53125 1.25 4.578125q0 2.0 -0.578125 3.375q-0.5625 1.375 -1.578125 2.09375q-1.015625 0.71875 -2.40625 0.71875zm0 -2.125q0.59375 0 1.0625 -0.375q0.484375 -0.375 0.765625 -1.265625q0.28125 -0.890625 0.28125 -2.421875q0 -1.546875 -0.28125 -2.40625q-0.28125 -0.875 -0.765625 -1.21875q-0.46875 -0.34375 -1.0625 -0.34375q-0.578125 0 -1.0625 0.34375q-0.484375 0.34375 -0.765625 1.21875q-0.28125 0.859375 -0.28125 2.40625q0 1.53125 0.28125 2.421875q0.28125 0.890625 0.765625 1.265625q0.484375 0.375 1.0625 0.375zm0 -2.6875q-0.578125 0 -0.984375 -0.390625q-0.40625 -0.390625 -0.40625 -1.015625q0 -0.65625 0.40625 -1.03125q0.40625 -0.390625 0.984375 -0.390625q0.59375 0 1.0 0.390625q0.40625 0.375 0.40625 1.03125q0 0.625 -0.40625 1.015625q-0.40625 0.390625 -1.0 0.390625z" fill-rule="nonzero"/><path fill="#000000" fill-opacity="0.0" d="m457.5748 18.860893l64.00003 0l0 42.015747l-64.00003 0z" fill-rule="evenodd"/><path fill="#000000" d="m489.5717 45.99964q-1.359375 0 -2.390625 -0.71875q-1.015625 -0.71875 -1.59375 -2.09375q-0.5625 -1.375 -0.5625 -3.375q0 -3.046875 1.25 -4.578125q1.25 -1.53125 3.296875 -1.53125q2.078125 0 3.3125 1.53125q1.25 1.53125 1.25 4.578125q0 2.0 -0.578125 3.375q-0.5625 1.375 -1.578125 2.09375q-1.015625 0.71875 -2.40625 0.71875zm0 -2.125q0.59375 0 1.0625 -0.375q0.484375 -0.375 0.765625 -1.265625q0.28125 -0.890625 0.28125 -2.421875q0 -1.546875 -0.28125 -2.40625q-0.28125 -0.875 -0.765625 -1.21875q-0.46875 -0.34375 -1.0625 -0.34375q-0.578125 0 -1.0625 0.34375q-0.484375 0.34375 -0.765625 1.21875q-0.28125 0.859375 -0.28125 2.40625q0 1.53125 0.28125 2.421875q0.28125 0.890625 0.765625 1.265625q0.484375 0.375 1.0625 0.375zm0 -2.6875q-0.578125 0 -0.984375 -0.390625q-0.40625 -0.390625 -0.40625 -1.015625q0 -0.65625 0.40625 -1.03125q0.40625 -0.390625 0.984375 -0.390625q0.59375 0 1.0 0.390625q0.40625 0.375 0.40625 1.03125q0 0.625 -0.40625 1.015625q-0.40625 0.390625 -1.0 0.390625z" fill-rule="nonzero"/><path fill="#000000" fill-opacity="0.0" d="m9.574803 147.69554l64.0 0l0 42.015747l-64.0 0z" fill-rule="evenodd"/><path fill="#000000" d="m31.693546 169.42804l0 -1.9375l8.578125 0l0 1.9375l-8.578125 0zm15.084381 5.40625q-1.0 0 -1.84375 -0.21875q-0.828125 -0.203125 -1.484375 -0.578125q-0.640625 -0.375 -1.09375 -0.875l1.265625 -1.734375q0.609375 0.515625 1.34375 0.859375q0.75 0.328125 1.546875 0.328125q0.640625 0 1.140625 -0.15625q0.5 -0.15625 0.78125 -0.46875q0.296875 -0.328125 0.296875 -0.765625q0 -0.53125 -0.3125 -0.90625q-0.3125 -0.390625 -1.09375 -0.59375q-0.765625 -0.203125 -2.171875 -0.203125l0 -1.9375q1.171875 0 1.859375 -0.203125q0.703125 -0.203125 1.015625 -0.5625q0.3125 -0.359375 0.3125 -0.828125q0 -0.625 -0.46875 -0.953125q-0.453125 -0.34375 -1.28125 -0.34375q-0.6875 0 -1.296875 0.265625q-0.609375 0.265625 -1.21875 0.78125l-1.375 -1.6875q0.875 -0.703125 1.875 -1.109375q1.015625 -0.40625 2.15625 -0.40625q1.28125 0 2.265625 0.390625q0.984375 0.375 1.53125 1.09375q0.5625 0.71875 0.5625 1.765625q0 0.921875 -0.59375 1.578125q-0.59375 0.640625 -1.671875 1.0625l0 0.0625q0.75 0.21875 1.359375 0.59375q0.609375 0.375 0.953125 0.953125q0.34375 0.578125 0.34375 1.34375q0 1.109375 -0.65625 1.890625q-0.65625 0.765625 -1.71875 1.171875q-1.0625 0.390625 -2.328125 0.390625z" fill-rule="nonzero"/><path fill="#000000" fill-opacity="0.0" d="m73.57481 147.69554l63.999992 0l0 42.015747l-63.999992 0z" fill-rule="evenodd"/><path fill="#000000" d="m101.44668 174.61554l0 -2.21875l3.203125 0l0 -6.84375l-2.640625 0l0 -1.703125q0.796875 -0.125 1.390625 -0.265625q0.59375 -0.140625 1.046875 -0.328125q0.46875 -0.203125 0.921875 -0.484375l2.015625 0l0 9.625l2.6875 0l0 2.21875l-8.625 0z" fill-rule="nonzero"/><path fill="#000000" fill-opacity="0.0" d="m137.5748 147.69554l64.0 0l0 42.015747l-64.0 0z" fill-rule="evenodd"/><path fill="#000000" d="m169.25917 174.83429q-1.03125 0 -1.859375 -0.21875q-0.8125 -0.21875 -1.453125 -0.59375q-0.625 -0.375 -1.109375 -0.84375l1.234375 -1.734375q0.390625 0.3125 0.8125 0.59375q0.4375 0.265625 0.921875 0.421875q0.5 0.15625 1.0625 0.15625q0.671875 0 1.1875 -0.203125q0.53125 -0.21875 0.8125 -0.625q0.296875 -0.421875 0.296875 -1.015625q0 -0.890625 -0.625 -1.359375q-0.609375 -0.46875 -1.546875 -0.46875q-0.578125 0 -0.984375 0.140625q-0.390625 0.125 -1.015625 0.453125l-1.203125 -0.78125l0.3125 -5.984375l7.265625 0l0 2.3125l-4.890625 0l-0.203125 2.21875q0.421875 -0.15625 0.765625 -0.21875q0.34375 -0.0625 0.796875 -0.0625q1.09375 0 2.015625 0.390625q0.9375 0.390625 1.484375 1.21875q0.5625 0.8125 0.5625 2.0625q0 1.328125 -0.65625 2.25q-0.640625 0.921875 -1.703125 1.40625q-1.0625 0.484375 -2.28125 0.484375z" fill-rule="nonzero"/><path fill="#000000" fill-opacity="0.0" d="m201.5748 147.69554l64.0 0l0 42.015747l-64.0 0z" fill-rule="evenodd"/><path fill="#000000" d="m223.69354 169.42804l0 -1.9375l8.578125 0l0 1.9375l-8.578125 0zm11.350006 5.1875l0 -2.21875l3.203125 0l0 -6.84375l-2.640625 0l0 -1.703125q0.796875 -0.125 1.390625 -0.265625q0.59375 -0.140625 1.046875 -0.328125q0.46875 -0.203125 0.921875 -0.484375l2.015625 0l0 9.625l2.6875 0l0 2.21875l-8.625 0z" fill-rule="nonzero"/><path fill="#000000" fill-opacity="0.0" d="m265.5748 147.69554l64.0 0l0 42.015747l-64.0 0z" fill-rule="evenodd"/><path fill="#000000" d="m287.69354 169.42804l0 -1.9375l8.578125 0l0 1.9375l-8.578125 0zm11.350006 5.1875l0 -2.21875l3.203125 0l0 -6.84375l-2.640625 0l0 -1.703125q0.796875 -0.125 1.390625 -0.265625q0.59375 -0.140625 1.046875 -0.328125q0.46875 -0.203125 0.921875 -0.484375l2.015625 0l0 9.625l2.6875 0l0 2.21875l-8.625 0z" fill-rule="nonzero"/><path fill="#000000" fill-opacity="0.0" d="m329.5748 147.69554l64.0 0l0 42.015747l-64.0 0z" fill-rule="evenodd"/><path fill="#000000" d="m361.5717 174.83429q-1.359375 0 -2.390625 -0.71875q-1.015625 -0.71875 -1.59375 -2.09375q-0.5625 -1.375 -0.5625 -3.375q0 -3.046875 1.25 -4.578125q1.25 -1.53125 3.296875 -1.53125q2.078125 0 3.3125 1.53125q1.25 1.53125 1.25 4.578125q0 2.0 -0.578125 3.375q-0.5625 1.375 -1.578125 2.09375q-1.015625 0.71875 -2.40625 0.71875zm0 -2.125q0.59375 0 1.0625 -0.375q0.484375 -0.375 0.765625 -1.265625q0.28125 -0.890625 0.28125 -2.421875q0 -1.546875 -0.28125 -2.40625q-0.28125 -0.875 -0.765625 -1.21875q-0.46875 -0.34375 -1.0625 -0.34375q-0.578125 0 -1.0625 0.34375q-0.484375 0.34375 -0.765625 1.21875q-0.28125 0.859375 -0.28125 2.40625q0 1.53125 0.28125 2.421875q0.28125 0.890625 0.765625 1.265625q0.484375 0.375 1.0625 0.375zm0 -2.6875q-0.578125 0 -0.984375 -0.390625q-0.40625 -0.390625 -0.40625 -1.015625q0 -0.65625 0.40625 -1.03125q0.40625 -0.390625 0.984375 -0.390625q0.59375 0 1.0 0.390625q0.40625 0.375 0.40625 1.03125q0 0.625 -0.40625 1.015625q-0.40625 0.390625 -1.0 0.390625z" fill-rule="nonzero"/><path fill="#000000" fill-opacity="0.0" d="m393.5748 147.69554l64.0 0l0 42.015747l-64.0 0z" fill-rule="evenodd"/><path fill="#000000" d="m425.5717 174.83429q-1.359375 0 -2.390625 -0.71875q-1.015625 -0.71875 -1.59375 -2.09375q-0.5625 -1.375 -0.5625 -3.375q0 -3.046875 1.25 -4.578125q1.25 -1.53125 3.296875 -1.53125q2.078125 0 3.3125 1.53125q1.25 1.53125 1.25 4.578125q0 2.0 -0.578125 3.375q-0.5625 1.375 -1.578125 2.09375q-1.015625 0.71875 -2.40625 0.71875zm0 -2.125q0.59375 0 1.0625 -0.375q0.484375 -0.375 0.765625 -1.265625q0.28125 -0.890625 0.28125 -2.421875q0 -1.546875 -0.28125 -2.40625q-0.28125 -0.875 -0.765625 -1.21875q-0.46875 -0.34375 -1.0625 -0.34375q-0.578125 0 -1.0625 0.34375q-0.484375 0.34375 -0.765625 1.21875q-0.28125 0.859375 -0.28125 2.40625q0 1.53125 0.28125 2.421875q0.28125 0.890625 0.765625 1.265625q0.484375 0.375 1.0625 0.375zm0 -2.6875q-0.578125 0 -0.984375 -0.390625q-0.40625 -0.390625 -0.40625 -1.015625q0 -0.65625 0.40625 -1.03125q0.40625 -0.390625 0.984375 -0.390625q0.59375 0 1.0 0.390625q0.40625 0.375 0.40625 1.03125q0 0.625 -0.40625 1.015625q-0.40625 0.390625 -1.0 0.390625z" fill-rule="nonzero"/><path fill="#000000" fill-opacity="0.0" d="m456.0 147.69554l64.0 0l0 42.015747l-64.0 0z" fill-rule="evenodd"/><path fill="#000000" d="m487.9969 174.83429q-1.359375 0 -2.390625 -0.71875q-1.015625 -0.71875 -1.59375 -2.09375q-0.5625 -1.375 -0.5625 -3.375q0 -3.046875 1.25 -4.578125q1.25 -1.53125 3.296875 -1.53125q2.078125 0 3.3125 1.53125q1.25 1.53125 1.25 4.578125q0 2.0 -0.578125 3.375q-0.5625 1.375 -1.578125 2.09375q-1.015625 0.71875 -2.40625 0.71875zm0 -2.125q0.59375 0 1.0625 -0.375q0.484375 -0.375 0.765625 -1.265625q0.28125 -0.890625 0.28125 -2.421875q0 -1.546875 -0.28125 -2.40625q-0.28125 -0.875 -0.765625 -1.21875q-0.46875 -0.34375 -1.0625 -0.34375q-0.578125 0 -1.0625 0.34375q-0.484375 0.34375 -0.765625 1.21875q-0.28125 0.859375 -0.28125 2.40625q0 1.53125 0.28125 2.421875q0.28125 0.890625 0.765625 1.265625q0.484375 0.375 1.0625 0.375zm0 -2.6875q-0.578125 0 -0.984375 -0.390625q-0.40625 -0.390625 -0.40625 -1.015625q0 -0.65625 0.40625 -1.03125q0.40625 -0.390625 0.984375 -0.390625q0.59375 0 1.0 0.390625q0.40625 0.375 0.40625 1.03125q0 0.625 -0.40625 1.015625q-0.40625 0.390625 -1.0 0.390625z" fill-rule="nonzero"/><path fill="#000000" fill-opacity="0.0" d="m9.574803 212.11285l64.0 0l0 42.015762l-64.0 0z" fill-rule="evenodd"/><path fill="#000000" d="m31.693546 233.84535l0 -1.9375l8.578125 0l0 1.9375l-8.578125 0zm15.084381 5.40625q-1.0 0 -1.84375 -0.21875q-0.828125 -0.203125 -1.484375 -0.578125q-0.640625 -0.375 -1.09375 -0.875l1.265625 -1.734375q0.609375 0.515625 1.34375 0.859375q0.75 0.328125 1.546875 0.328125q0.640625 0 1.140625 -0.15625q0.5 -0.15625 0.78125 -0.46875q0.296875 -0.328125 0.296875 -0.765625q0 -0.53125 -0.3125 -0.90625q-0.3125 -0.390625 -1.09375 -0.59375q-0.765625 -0.203125 -2.171875 -0.203125l0 -1.9375q1.171875 0 1.859375 -0.203125q0.703125 -0.203125 1.015625 -0.5625q0.3125 -0.359375 0.3125 -0.828125q0 -0.625 -0.46875 -0.953125q-0.453125 -0.34375 -1.28125 -0.34375q-0.6875 0 -1.296875 0.265625q-0.609375 0.265625 -1.21875 0.78125l-1.375 -1.6875q0.875 -0.703125 1.875 -1.109375q1.015625 -0.40625 2.15625 -0.40625q1.28125 0 2.265625 0.390625q0.984375 0.375 1.53125 1.09375q0.5625 0.71875 0.5625 1.765625q0 0.921875 -0.59375 1.578125q-0.59375 0.640625 -1.671875 1.0625l0 0.0625q0.75 0.21875 1.359375 0.59375q0.609375 0.375 0.953125 0.953125q0.34375 0.578125 0.34375 1.34375q0 1.109375 -0.65625 1.890625q-0.65625 0.765625 -1.71875 1.171875q-1.0625 0.390625 -2.328125 0.390625z" fill-rule="nonzero"/><path fill="#000000" fill-opacity="0.0" d="m73.57481 212.11285l63.999992 0l0 42.015762l-63.999992 0z" fill-rule="evenodd"/><path fill="#000000" d="m101.44668 239.03285l0 -2.21875l3.203125 0l0 -6.84375l-2.640625 0l0 -1.703125q0.796875 -0.125 1.390625 -0.265625q0.59375 -0.140625 1.046875 -0.328125q0.46875 -0.203125 0.921875 -0.484375l2.015625 0l0 9.625l2.6875 0l0 2.21875l-8.625 0z" fill-rule="nonzero"/><path fill="#000000" fill-opacity="0.0" d="m137.5748 212.11285l64.0 0l0 42.015762l-64.0 0z" fill-rule="evenodd"/><path fill="#000000" d="m165.05605 239.03285l0 -1.5625q1.703125 -1.4375 2.96875 -2.59375q1.28125 -1.171875 1.984375 -2.15625q0.71875 -0.984375 0.71875 -1.828125q0 -0.875 -0.515625 -1.328125q-0.5 -0.453125 -1.421875 -0.453125q-0.703125 0 -1.296875 0.359375q-0.59375 0.359375 -1.09375 0.84375l-1.46875 -1.46875q0.90625 -0.953125 1.890625 -1.421875q0.984375 -0.46875 2.34375 -0.46875q1.234375 0 2.171875 0.46875q0.9375 0.46875 1.46875 1.328125q0.53125 0.84375 0.53125 1.984375q0 1.0 -0.609375 2.03125q-0.59375 1.015625 -1.59375 2.0625q-1.0 1.03125 -2.140625 2.03125q0.5 -0.046875 1.09375 -0.09375q0.609375 -0.046875 1.046875 -0.046875l2.828125 0l0 2.3125l-8.90625 0z" fill-rule="nonzero"/><path fill="#000000" fill-opacity="0.0" d="m201.5748 212.11285l64.0 0l0 42.015762l-64.0 0z" fill-rule="evenodd"/><path fill="#000000" d="m223.69354 233.84535l0 -1.9375l8.578125 0l0 1.9375l-8.578125 0zm11.350006 5.1875l0 -2.21875l3.203125 0l0 -6.84375l-2.640625 0l0 -1.703125q0.796875 -0.125 1.390625 -0.265625q0.59375 -0.140625 1.046875 -0.328125q0.46875 -0.203125 0.921875 -0.484375l2.015625 0l0 9.625l2.6875 0l0 2.21875l-8.625 0z" fill-rule="nonzero"/><path fill="#000000" fill-opacity="0.0" d="m265.5748 212.11285l64.0 0l0 42.015762l-64.0 0z" fill-rule="evenodd"/><path fill="#000000" d="m297.5717 239.2516q-1.359375 0 -2.390625 -0.71875q-1.015625 -0.71875 -1.59375 -2.09375q-0.5625 -1.375 -0.5625 -3.375q0 -3.046875 1.25 -4.578125q1.25 -1.53125 3.296875 -1.53125q2.078125 0 3.3125 1.53125q1.25 1.53125 1.25 4.578125q0 2.0 -0.578125 3.375q-0.5625 1.375 -1.578125 2.09375q-1.015625 0.71875 -2.40625 0.71875zm0 -2.125q0.59375 0 1.0625 -0.375q0.484375 -0.375 0.765625 -1.265625q0.28125 -0.890625 0.28125 -2.421875q0 -1.546875 -0.28125 -2.40625q-0.28125 -0.875 -0.765625 -1.21875q-0.46875 -0.34375 -1.0625 -0.34375q-0.578125 0 -1.0625 0.34375q-0.484375 0.34375 -0.765625 1.21875q-0.28125 0.859375 -0.28125 2.40625q0 1.53125 0.28125 2.421875q0.28125 0.890625 0.765625 1.265625q0.484375 0.375 1.0625 0.375zm0 -2.6875q-0.578125 0 -0.984375 -0.390625q-0.40625 -0.390625 -0.40625 -1.015625q0 -0.65625 0.40625 -1.03125q0.40625 -0.390625 0.984375 -0.390625q0.59375 0 1.0 0.390625q0.40625 0.375 0.40625 1.03125q0 0.625 -0.40625 1.015625q-0.40625 0.390625 -1.0 0.390625z" fill-rule="nonzero"/><path fill="#000000" fill-opacity="0.0" d="m329.5748 212.11285l64.0 0l0 42.015762l-64.0 0z" fill-rule="evenodd"/><path fill="#000000" d="m361.5717 239.2516q-1.359375 0 -2.390625 -0.71875q-1.015625 -0.71875 -1.59375 -2.09375q-0.5625 -1.375 -0.5625 -3.375q0 -3.046875 1.25 -4.578125q1.25 -1.53125 3.296875 -1.53125q2.078125 0 3.3125 1.53125q1.25 1.53125 1.25 4.578125q0 2.0 -0.578125 3.375q-0.5625 1.375 -1.578125 2.09375q-1.015625 0.71875 -2.40625 0.71875zm0 -2.125q0.59375 0 1.0625 -0.375q0.484375 -0.375 0.765625 -1.265625q0.28125 -0.890625 0.28125 -2.421875q0 -1.546875 -0.28125 -2.40625q-0.28125 -0.875 -0.765625 -1.21875q-0.46875 -0.34375 -1.0625 -0.34375q-0.578125 0 -1.0625 0.34375q-0.484375 0.34375 -0.765625 1.21875q-0.28125 0.859375 -0.28125 2.40625q0 1.53125 0.28125 2.421875q0.28125 0.890625 0.765625 1.265625q0.484375 0.375 1.0625 0.375zm0 -2.6875q-0.578125 0 -0.984375 -0.390625q-0.40625 -0.390625 -0.40625 -1.015625q0 -0.65625 0.40625 -1.03125q0.40625 -0.390625 0.984375 -0.390625q0.59375 0 1.0 0.390625q0.40625 0.375 0.40625 1.03125q0 0.625 -0.40625 1.015625q-0.40625 0.390625 -1.0 0.390625z" fill-rule="nonzero"/><path fill="#000000" fill-opacity="0.0" d="m393.5748 212.11285l64.0 0l0 42.015762l-64.0 0z" fill-rule="evenodd"/><path fill="#000000" d="m425.5717 239.2516q-1.359375 0 -2.390625 -0.71875q-1.015625 -0.71875 -1.59375 -2.09375q-0.5625 -1.375 -0.5625 -3.375q0 -3.046875 1.25 -4.578125q1.25 -1.53125 3.296875 -1.53125q2.078125 0 3.3125 1.53125q1.25 1.53125 1.25 4.578125q0 2.0 -0.578125 3.375q-0.5625 1.375 -1.578125 2.09375q-1.015625 0.71875 -2.40625 0.71875zm0 -2.125q0.59375 0 1.0625 -0.375q0.484375 -0.375 0.765625 -1.265625q0.28125 -0.890625 0.28125 -2.421875q0 -1.546875 -0.28125 -2.40625q-0.28125 -0.875 -0.765625 -1.21875q-0.46875 -0.34375 -1.0625 -0.34375q-0.578125 0 -1.0625 0.34375q-0.484375 0.34375 -0.765625 1.21875q-0.28125 0.859375 -0.28125 2.40625q0 1.53125 0.28125 2.421875q0.28125 0.890625 0.765625 1.265625q0.484375 0.375 1.0625 0.375zm0 -2.6875q-0.578125 0 -0.984375 -0.390625q-0.40625 -0.390625 -0.40625 -1.015625q0 -0.65625 0.40625 -1.03125q0.40625 -0.390625 0.984375 -0.390625q0.59375 0 1.0 0.390625q0.40625 0.375 0.40625 1.03125q0 0.625 -0.40625 1.015625q-0.40625 0.390625 -1.0 0.390625z" fill-rule="nonzero"/><path fill="#000000" fill-opacity="0.0" d="m457.5748 212.11285l64.00003 0l0 42.015762l-64.00003 0z" fill-rule="evenodd"/><path fill="#000000" d="m489.5717 239.2516q-1.359375 0 -2.390625 -0.71875q-1.015625 -0.71875 -1.59375 -2.09375q-0.5625 -1.375 -0.5625 -3.375q0 -3.046875 1.25 -4.578125q1.25 -1.53125 3.296875 -1.53125q2.078125 0 3.3125 1.53125q1.25 1.53125 1.25 4.578125q0 2.0 -0.578125 3.375q-0.5625 1.375 -1.578125 2.09375q-1.015625 0.71875 -2.40625 0.71875zm0 -2.125q0.59375 0 1.0625 -0.375q0.484375 -0.375 0.765625 -1.265625q0.28125 -0.890625 0.28125 -2.421875q0 -1.546875 -0.28125 -2.40625q-0.28125 -0.875 -0.765625 -1.21875q-0.46875 -0.34375 -1.0625 -0.34375q-0.578125 0 -1.0625 0.34375q-0.484375 0.34375 -0.765625 1.21875q-0.28125 0.859375 -0.28125 2.40625q0 1.53125 0.28125 2.421875q0.28125 0.890625 0.765625 1.265625q0.484375 0.375 1.0625 0.375zm0 -2.6875q-0.578125 0 -0.984375 -0.390625q-0.40625 -0.390625 -0.40625 -1.015625q0 -0.65625 0.40625 -1.03125q0.40625 -0.390625 0.984375 -0.390625q0.59375 0 1.0 0.390625q0.40625 0.375 0.40625 1.03125q0 0.625 -0.40625 1.015625q-0.40625 0.390625 -1.0 0.390625z" fill-rule="nonzero"/><path fill="#000000" fill-opacity="0.0" d="m9.574803 276.53018l64.0 0l0 42.015747l-64.0 0z" fill-rule="evenodd"/><path fill="#000000" d="m37.446674 303.4502l0 -2.21875l3.203125 0l0 -6.84375l-2.640625 0l0 -1.703125q0.796875 -0.125 1.390625 -0.265625q0.59375 -0.140625 1.046875 -0.328125q0.46875 -0.203125 0.921875 -0.484375l2.015625 0l0 9.625l2.6875 0l0 2.21875l-8.625 0z" fill-rule="nonzero"/><path fill="#000000" fill-opacity="0.0" d="m73.57481 276.53018l63.999992 0l0 42.015747l-63.999992 0z" fill-rule="evenodd"/><path fill="#000000" d="m105.57168 303.66895q-1.359375 0 -2.390625 -0.71875q-1.015625 -0.71875 -1.59375 -2.09375q-0.5625 -1.375 -0.5625 -3.375q0 -3.046875 1.25 -4.578125q1.25 -1.53125 3.296875 -1.53125q2.078125 0 3.3125 1.53125q1.25 1.53125 1.25 4.578125q0 2.0 -0.578125 3.375q-0.5625 1.375 -1.578125 2.09375q-1.015625 0.71875 -2.40625 0.71875zm0 -2.125q0.59375 0 1.0625 -0.375q0.484375 -0.375 0.765625 -1.265625q0.28125 -0.890625 0.28125 -2.421875q0 -1.546875 -0.28125 -2.40625q-0.28125 -0.875 -0.765625 -1.21875q-0.46875 -0.34375 -1.0625 -0.34375q-0.578125 0 -1.0625 0.34375q-0.484375 0.34375 -0.765625 1.21875q-0.28125 0.859375 -0.28125 2.40625q0 1.53125 0.28125 2.421875q0.28125 0.890625 0.765625 1.265625q0.484375 0.375 1.0625 0.375zm0 -2.6875q-0.578125 0 -0.984375 -0.390625q-0.40625 -0.390625 -0.40625 -1.015625q0 -0.65625 0.40625 -1.03125q0.40625 -0.390625 0.984375 -0.390625q0.59375 0 1.0 0.390625q0.40625 0.375 0.40625 1.03125q0 0.625 -0.40625 1.015625q-0.40625 0.390625 -1.0 0.390625z" fill-rule="nonzero"/><path fill="#000000" fill-opacity="0.0" d="m137.5748 276.53018l64.0 0l0 42.015747l-64.0 0z" fill-rule="evenodd"/><path fill="#000000" d="m169.57167 303.66895q-1.359375 0 -2.390625 -0.71875q-1.015625 -0.71875 -1.59375 -2.09375q-0.5625 -1.375 -0.5625 -3.375q0 -3.046875 1.25 -4.578125q1.25 -1.53125 3.296875 -1.53125q2.078125 0 3.3125 1.53125q1.25 1.53125 1.25 4.578125q0 2.0 -0.578125 3.375q-0.5625 1.375 -1.578125 2.09375q-1.015625 0.71875 -2.40625 0.71875zm0 -2.125q0.59375 0 1.0625 -0.375q0.484375 -0.375 0.765625 -1.265625q0.28125 -0.890625 0.28125 -2.421875q0 -1.546875 -0.28125 -2.40625q-0.28125 -0.875 -0.765625 -1.21875q-0.46875 -0.34375 -1.0625 -0.34375q-0.578125 0 -1.0625 0.34375q-0.484375 0.34375 -0.765625 1.21875q-0.28125 0.859375 -0.28125 2.40625q0 1.53125 0.28125 2.421875q0.28125 0.890625 0.765625 1.265625q0.484375 0.375 1.0625 0.375zm0 -2.6875q-0.578125 0 -0.984375 -0.390625q-0.40625 -0.390625 -0.40625 -1.015625q0 -0.65625 0.40625 -1.03125q0.40625 -0.390625 0.984375 -0.390625q0.59375 0 1.0 0.390625q0.40625 0.375 0.40625 1.03125q0 0.625 -0.40625 1.015625q-0.40625 0.390625 -1.0 0.390625z" fill-rule="nonzero"/><path fill="#000000" fill-opacity="0.0" d="m201.5748 276.53018l64.0 0l0 42.015747l-64.0 0z" fill-rule="evenodd"/><path fill="#000000" d="m233.57167 303.66895q-1.359375 0 -2.390625 -0.71875q-1.015625 -0.71875 -1.59375 -2.09375q-0.5625 -1.375 -0.5625 -3.375q0 -3.046875 1.25 -4.578125q1.25 -1.53125 3.296875 -1.53125q2.078125 0 3.3125 1.53125q1.25 1.53125 1.25 4.578125q0 2.0 -0.578125 3.375q-0.5625 1.375 -1.578125 2.09375q-1.015625 0.71875 -2.40625 0.71875zm0 -2.125q0.59375 0 1.0625 -0.375q0.484375 -0.375 0.765625 -1.265625q0.28125 -0.890625 0.28125 -2.421875q0 -1.546875 -0.28125 -2.40625q-0.28125 -0.875 -0.765625 -1.21875q-0.46875 -0.34375 -1.0625 -0.34375q-0.578125 0 -1.0625 0.34375q-0.484375 0.34375 -0.765625 1.21875q-0.28125 0.859375 -0.28125 2.40625q0 1.53125 0.28125 2.421875q0.28125 0.890625 0.765625 1.265625q0.484375 0.375 1.0625 0.375zm0 -2.6875q-0.578125 0 -0.984375 -0.390625q-0.40625 -0.390625 -0.40625 -1.015625q0 -0.65625 0.40625 -1.03125q0.40625 -0.390625 0.984375 -0.390625q0.59375 0 1.0 0.390625q0.40625 0.375 0.40625 1.03125q0 0.625 -0.40625 1.015625q-0.40625 0.390625 -1.0 0.390625z" fill-rule="nonzero"/><path fill="#000000" fill-opacity="0.0" d="m265.5748 276.53018l64.0 0l0 42.015747l-64.0 0z" fill-rule="evenodd"/><path fill="#000000" d="m297.5717 303.66895q-1.359375 0 -2.390625 -0.71875q-1.015625 -0.71875 -1.59375 -2.09375q-0.5625 -1.375 -0.5625 -3.375q0 -3.046875 1.25 -4.578125q1.25 -1.53125 3.296875 -1.53125q2.078125 0 3.3125 1.53125q1.25 1.53125 1.25 4.578125q0 2.0 -0.578125 3.375q-0.5625 1.375 -1.578125 2.09375q-1.015625 0.71875 -2.40625 0.71875zm0 -2.125q0.59375 0 1.0625 -0.375q0.484375 -0.375 0.765625 -1.265625q0.28125 -0.890625 0.28125 -2.421875q0 -1.546875 -0.28125 -2.40625q-0.28125 -0.875 -0.765625 -1.21875q-0.46875 -0.34375 -1.0625 -0.34375q-0.578125 0 -1.0625 0.34375q-0.484375 0.34375 -0.765625 1.21875q-0.28125 0.859375 -0.28125 2.40625q0 1.53125 0.28125 2.421875q0.28125 0.890625 0.765625 1.265625q0.484375 0.375 1.0625 0.375zm0 -2.6875q-0.578125 0 -0.984375 -0.390625q-0.40625 -0.390625 -0.40625 -1.015625q0 -0.65625 0.40625 -1.03125q0.40625 -0.390625 0.984375 -0.390625q0.59375 0 1.0 0.390625q0.40625 0.375 0.40625 1.03125q0 0.625 -0.40625 1.015625q-0.40625 0.390625 -1.0 0.390625z" fill-rule="nonzero"/><path fill="#000000" fill-opacity="0.0" d="m329.5748 276.53018l64.0 0l0 42.015747l-64.0 0z" fill-rule="evenodd"/><path fill="#000000" d="m361.5717 303.66895q-1.359375 0 -2.390625 -0.71875q-1.015625 -0.71875 -1.59375 -2.09375q-0.5625 -1.375 -0.5625 -3.375q0 -3.046875 1.25 -4.578125q1.25 -1.53125 3.296875 -1.53125q2.078125 0 3.3125 1.53125q1.25 1.53125 1.25 4.578125q0 2.0 -0.578125 3.375q-0.5625 1.375 -1.578125 2.09375q-1.015625 0.71875 -2.40625 0.71875zm0 -2.125q0.59375 0 1.0625 -0.375q0.484375 -0.375 0.765625 -1.265625q0.28125 -0.890625 0.28125 -2.421875q0 -1.546875 -0.28125 -2.40625q-0.28125 -0.875 -0.765625 -1.21875q-0.46875 -0.34375 -1.0625 -0.34375q-0.578125 0 -1.0625 0.34375q-0.484375 0.34375 -0.765625 1.21875q-0.28125 0.859375 -0.28125 2.40625q0 1.53125 0.28125 2.421875q0.28125 0.890625 0.765625 1.265625q0.484375 0.375 1.0625 0.375zm0 -2.6875q-0.578125 0 -0.984375 -0.390625q-0.40625 -0.390625 -0.40625 -1.015625q0 -0.65625 0.40625 -1.03125q0.40625 -0.390625 0.984375 -0.390625q0.59375 0 1.0 0.390625q0.40625 0.375 0.40625 1.03125q0 0.625 -0.40625 1.015625q-0.40625 0.390625 -1.0 0.390625z" fill-rule="nonzero"/><path fill="#000000" fill-opacity="0.0" d="m393.5748 276.53018l64.0 0l0 42.015747l-64.0 0z" fill-rule="evenodd"/><path fill="#000000" d="m425.5717 303.66895q-1.359375 0 -2.390625 -0.71875q-1.015625 -0.71875 -1.59375 -2.09375q-0.5625 -1.375 -0.5625 -3.375q0 -3.046875 1.25 -4.578125q1.25 -1.53125 3.296875 -1.53125q2.078125 0 3.3125 1.53125q1.25 1.53125 1.25 4.578125q0 2.0 -0.578125 3.375q-0.5625 1.375 -1.578125 2.09375q-1.015625 0.71875 -2.40625 0.71875zm0 -2.125q0.59375 0 1.0625 -0.375q0.484375 -0.375 0.765625 -1.265625q0.28125 -0.890625 0.28125 -2.421875q0 -1.546875 -0.28125 -2.40625q-0.28125 -0.875 -0.765625 -1.21875q-0.46875 -0.34375 -1.0625 -0.34375q-0.578125 0 -1.0625 0.34375q-0.484375 0.34375 -0.765625 1.21875q-0.28125 0.859375 -0.28125 2.40625q0 1.53125 0.28125 2.421875q0.28125 0.890625 0.765625 1.265625q0.484375 0.375 1.0625 0.375zm0 -2.6875q-0.578125 0 -0.984375 -0.390625q-0.40625 -0.390625 -0.40625 -1.015625q0 -0.65625 0.40625 -1.03125q0.40625 -0.390625 0.984375 -0.390625q0.59375 0 1.0 0.390625q0.40625 0.375 0.40625 1.03125q0 0.625 -0.40625 1.015625q-0.40625 0.390625 -1.0 0.390625z" fill-rule="nonzero"/><path fill="#000000" fill-opacity="0.0" d="m457.5748 276.53018l64.00003 0l0 42.015747l-64.00003 0z" fill-rule="evenodd"/><path fill="#000000" d="m489.5717 303.66895q-1.359375 0 -2.390625 -0.71875q-1.015625 -0.71875 -1.59375 -2.09375q-0.5625 -1.375 -0.5625 -3.375q0 -3.046875 1.25 -4.578125q1.25 -1.53125 3.296875 -1.53125q2.078125 0 3.3125 1.53125q1.25 1.53125 1.25 4.578125q0 2.0 -0.578125 3.375q-0.5625 1.375 -1.578125 2.09375q-1.015625 0.71875 -2.40625 0.71875zm0 -2.125q0.59375 0 1.0625 -0.375q0.484375 -0.375 0.765625 -1.265625q0.28125 -0.890625 0.28125 -2.421875q0 -1.546875 -0.28125 -2.40625q-0.28125 -0.875 -0.765625 -1.21875q-0.46875 -0.34375 -1.0625 -0.34375q-0.578125 0 -1.0625 0.34375q-0.484375 0.34375 -0.765625 1.21875q-0.28125 0.859375 -0.28125 2.40625q0 1.53125 0.28125 2.421875q0.28125 0.890625 0.765625 1.265625q0.484375 0.375 1.0625 0.375zm0 -2.6875q-0.578125 0 -0.984375 -0.390625q-0.40625 -0.390625 -0.40625 -1.015625q0 -0.65625 0.40625 -1.03125q0.40625 -0.390625 0.984375 -0.390625q0.59375 0 1.0 0.390625q0.40625 0.375 0.40625 1.03125q0 0.625 -0.40625 1.015625q-0.40625 0.390625 -1.0 0.390625z" fill-rule="nonzero"/><path fill="#000000" fill-opacity="0.0" d="m9.574803 340.9475l64.0 0l0 42.015747l-64.0 0z" fill-rule="evenodd"/><path fill="#000000" d="m41.571674 368.08624q-1.359375 0 -2.390625 -0.71875q-1.015625 -0.71875 -1.59375 -2.09375q-0.5625 -1.375 -0.5625 -3.375q0 -3.046875 1.25 -4.578125q1.25 -1.53125 3.296875 -1.53125q2.078125 0 3.3125 1.53125q1.25 1.53125 1.25 4.578125q0 2.0 -0.578125 3.375q-0.5625 1.375 -1.578125 2.09375q-1.015625 0.71875 -2.40625 0.71875zm0 -2.125q0.59375 0 1.0625 -0.375q0.484375 -0.375 0.765625 -1.265625q0.28125 -0.890625 0.28125 -2.421875q0 -1.546875 -0.28125 -2.40625q-0.28125 -0.875 -0.765625 -1.21875q-0.46875 -0.34375 -1.0625 -0.34375q-0.578125 0 -1.0625 0.34375q-0.484375 0.34375 -0.765625 1.21875q-0.28125 0.859375 -0.28125 2.40625q0 1.53125 0.28125 2.421875q0.28125 0.890625 0.765625 1.265625q0.484375 0.375 1.0625 0.375zm0 -2.6875q-0.578125 0 -0.984375 -0.390625q-0.40625 -0.390625 -0.40625 -1.015625q0 -0.65625 0.40625 -1.03125q0.40625 -0.390625 0.984375 -0.390625q0.59375 0 1.0 0.390625q0.40625 0.375 0.40625 1.03125q0 0.625 -0.40625 1.015625q-0.40625 0.390625 -1.0 0.390625z" fill-rule="nonzero"/><path fill="#000000" fill-opacity="0.0" d="m73.57481 340.9475l63.999992 0l0 42.015747l-63.999992 0z" fill-rule="evenodd"/><path fill="#000000" d="m105.57168 368.08624q-1.359375 0 -2.390625 -0.71875q-1.015625 -0.71875 -1.59375 -2.09375q-0.5625 -1.375 -0.5625 -3.375q0 -3.046875 1.25 -4.578125q1.25 -1.53125 3.296875 -1.53125q2.078125 0 3.3125 1.53125q1.25 1.53125 1.25 4.578125q0 2.0 -0.578125 3.375q-0.5625 1.375 -1.578125 2.09375q-1.015625 0.71875 -2.40625 0.71875zm0 -2.125q0.59375 0 1.0625 -0.375q0.484375 -0.375 0.765625 -1.265625q0.28125 -0.890625 0.28125 -2.421875q0 -1.546875 -0.28125 -2.40625q-0.28125 -0.875 -0.765625 -1.21875q-0.46875 -0.34375 -1.0625 -0.34375q-0.578125 0 -1.0625 0.34375q-0.484375 0.34375 -0.765625 1.21875q-0.28125 0.859375 -0.28125 2.40625q0 1.53125 0.28125 2.421875q0.28125 0.890625 0.765625 1.265625q0.484375 0.375 1.0625 0.375zm0 -2.6875q-0.578125 0 -0.984375 -0.390625q-0.40625 -0.390625 -0.40625 -1.015625q0 -0.65625 0.40625 -1.03125q0.40625 -0.390625 0.984375 -0.390625q0.59375 0 1.0 0.390625q0.40625 0.375 0.40625 1.03125q0 0.625 -0.40625 1.015625q-0.40625 0.390625 -1.0 0.390625z" fill-rule="nonzero"/><path fill="#000000" fill-opacity="0.0" d="m137.5748 340.9475l64.0 0l0 42.015747l-64.0 0z" fill-rule="evenodd"/><path fill="#000000" d="m169.57167 368.08624q-1.359375 0 -2.390625 -0.71875q-1.015625 -0.71875 -1.59375 -2.09375q-0.5625 -1.375 -0.5625 -3.375q0 -3.046875 1.25 -4.578125q1.25 -1.53125 3.296875 -1.53125q2.078125 0 3.3125 1.53125q1.25 1.53125 1.25 4.578125q0 2.0 -0.578125 3.375q-0.5625 1.375 -1.578125 2.09375q-1.015625 0.71875 -2.40625 0.71875zm0 -2.125q0.59375 0 1.0625 -0.375q0.484375 -0.375 0.765625 -1.265625q0.28125 -0.890625 0.28125 -2.421875q0 -1.546875 -0.28125 -2.40625q-0.28125 -0.875 -0.765625 -1.21875q-0.46875 -0.34375 -1.0625 -0.34375q-0.578125 0 -1.0625 0.34375q-0.484375 0.34375 -0.765625 1.21875q-0.28125 0.859375 -0.28125 2.40625q0 1.53125 0.28125 2.421875q0.28125 0.890625 0.765625 1.265625q0.484375 0.375 1.0625 0.375zm0 -2.6875q-0.578125 0 -0.984375 -0.390625q-0.40625 -0.390625 -0.40625 -1.015625q0 -0.65625 0.40625 -1.03125q0.40625 -0.390625 0.984375 -0.390625q0.59375 0 1.0 0.390625q0.40625 0.375 0.40625 1.03125q0 0.625 -0.40625 1.015625q-0.40625 0.390625 -1.0 0.390625z" fill-rule="nonzero"/><path fill="#000000" fill-opacity="0.0" d="m201.5748 340.9475l64.0 0l0 42.015747l-64.0 0z" fill-rule="evenodd"/><path fill="#000000" d="m233.57167 368.08624q-1.359375 0 -2.390625 -0.71875q-1.015625 -0.71875 -1.59375 -2.09375q-0.5625 -1.375 -0.5625 -3.375q0 -3.046875 1.25 -4.578125q1.25 -1.53125 3.296875 -1.53125q2.078125 0 3.3125 1.53125q1.25 1.53125 1.25 4.578125q0 2.0 -0.578125 3.375q-0.5625 1.375 -1.578125 2.09375q-1.015625 0.71875 -2.40625 0.71875zm0 -2.125q0.59375 0 1.0625 -0.375q0.484375 -0.375 0.765625 -1.265625q0.28125 -0.890625 0.28125 -2.421875q0 -1.546875 -0.28125 -2.40625q-0.28125 -0.875 -0.765625 -1.21875q-0.46875 -0.34375 -1.0625 -0.34375q-0.578125 0 -1.0625 0.34375q-0.484375 0.34375 -0.765625 1.21875q-0.28125 0.859375 -0.28125 2.40625q0 1.53125 0.28125 2.421875q0.28125 0.890625 0.765625 1.265625q0.484375 0.375 1.0625 0.375zm0 -2.6875q-0.578125 0 -0.984375 -0.390625q-0.40625 -0.390625 -0.40625 -1.015625q0 -0.65625 0.40625 -1.03125q0.40625 -0.390625 0.984375 -0.390625q0.59375 0 1.0 0.390625q0.40625 0.375 0.40625 1.03125q0 0.625 -0.40625 1.015625q-0.40625 0.390625 -1.0 0.390625z" fill-rule="nonzero"/><path fill="#000000" fill-opacity="0.0" d="m265.5748 340.9475l64.0 0l0 42.015747l-64.0 0z" fill-rule="evenodd"/><path fill="#000000" d="m297.5717 368.08624q-1.359375 0 -2.390625 -0.71875q-1.015625 -0.71875 -1.59375 -2.09375q-0.5625 -1.375 -0.5625 -3.375q0 -3.046875 1.25 -4.578125q1.25 -1.53125 3.296875 -1.53125q2.078125 0 3.3125 1.53125q1.25 1.53125 1.25 4.578125q0 2.0 -0.578125 3.375q-0.5625 1.375 -1.578125 2.09375q-1.015625 0.71875 -2.40625 0.71875zm0 -2.125q0.59375 0 1.0625 -0.375q0.484375 -0.375 0.765625 -1.265625q0.28125 -0.890625 0.28125 -2.421875q0 -1.546875 -0.28125 -2.40625q-0.28125 -0.875 -0.765625 -1.21875q-0.46875 -0.34375 -1.0625 -0.34375q-0.578125 0 -1.0625 0.34375q-0.484375 0.34375 -0.765625 1.21875q-0.28125 0.859375 -0.28125 2.40625q0 1.53125 0.28125 2.421875q0.28125 0.890625 0.765625 1.265625q0.484375 0.375 1.0625 0.375zm0 -2.6875q-0.578125 0 -0.984375 -0.390625q-0.40625 -0.390625 -0.40625 -1.015625q0 -0.65625 0.40625 -1.03125q0.40625 -0.390625 0.984375 -0.390625q0.59375 0 1.0 0.390625q0.40625 0.375 0.40625 1.03125q0 0.625 -0.40625 1.015625q-0.40625 0.390625 -1.0 0.390625z" fill-rule="nonzero"/><path fill="#000000" fill-opacity="0.0" d="m329.5748 340.9475l64.0 0l0 42.015747l-64.0 0z" fill-rule="evenodd"/><path fill="#000000" d="m361.5717 368.08624q-1.359375 0 -2.390625 -0.71875q-1.015625 -0.71875 -1.59375 -2.09375q-0.5625 -1.375 -0.5625 -3.375q0 -3.046875 1.25 -4.578125q1.25 -1.53125 3.296875 -1.53125q2.078125 0 3.3125 1.53125q1.25 1.53125 1.25 4.578125q0 2.0 -0.578125 3.375q-0.5625 1.375 -1.578125 2.09375q-1.015625 0.71875 -2.40625 0.71875zm0 -2.125q0.59375 0 1.0625 -0.375q0.484375 -0.375 0.765625 -1.265625q0.28125 -0.890625 0.28125 -2.421875q0 -1.546875 -0.28125 -2.40625q-0.28125 -0.875 -0.765625 -1.21875q-0.46875 -0.34375 -1.0625 -0.34375q-0.578125 0 -1.0625 0.34375q-0.484375 0.34375 -0.765625 1.21875q-0.28125 0.859375 -0.28125 2.40625q0 1.53125 0.28125 2.421875q0.28125 0.890625 0.765625 1.265625q0.484375 0.375 1.0625 0.375zm0 -2.6875q-0.578125 0 -0.984375 -0.390625q-0.40625 -0.390625 -0.40625 -1.015625q0 -0.65625 0.40625 -1.03125q0.40625 -0.390625 0.984375 -0.390625q0.59375 0 1.0 0.390625q0.40625 0.375 0.40625 1.03125q0 0.625 -0.40625 1.015625q-0.40625 0.390625 -1.0 0.390625z" fill-rule="nonzero"/><path fill="#000000" fill-opacity="0.0" d="m393.5748 340.9475l64.0 0l0 42.015747l-64.0 0z" fill-rule="evenodd"/><path fill="#000000" d="m425.5717 368.08624q-1.359375 0 -2.390625 -0.71875q-1.015625 -0.71875 -1.59375 -2.09375q-0.5625 -1.375 -0.5625 -3.375q0 -3.046875 1.25 -4.578125q1.25 -1.53125 3.296875 -1.53125q2.078125 0 3.3125 1.53125q1.25 1.53125 1.25 4.578125q0 2.0 -0.578125 3.375q-0.5625 1.375 -1.578125 2.09375q-1.015625 0.71875 -2.40625 0.71875zm0 -2.125q0.59375 0 1.0625 -0.375q0.484375 -0.375 0.765625 -1.265625q0.28125 -0.890625 0.28125 -2.421875q0 -1.546875 -0.28125 -2.40625q-0.28125 -0.875 -0.765625 -1.21875q-0.46875 -0.34375 -1.0625 -0.34375q-0.578125 0 -1.0625 0.34375q-0.484375 0.34375 -0.765625 1.21875q-0.28125 0.859375 -0.28125 2.40625q0 1.53125 0.28125 2.421875q0.28125 0.890625 0.765625 1.265625q0.484375 0.375 1.0625 0.375zm0 -2.6875q-0.578125 0 -0.984375 -0.390625q-0.40625 -0.390625 -0.40625 -1.015625q0 -0.65625 0.40625 -1.03125q0.40625 -0.390625 0.984375 -0.390625q0.59375 0 1.0 0.390625q0.40625 0.375 0.40625 1.03125q0 0.625 -0.40625 1.015625q-0.40625 0.390625 -1.0 0.390625z" fill-rule="nonzero"/><path fill="#000000" fill-opacity="0.0" d="m457.5748 340.9462l64.00003 0l0 42.015747l-64.00003 0z" fill-rule="evenodd"/><path fill="#000000" d="m489.5717 368.08493q-1.359375 0 -2.390625 -0.71875q-1.015625 -0.71875 -1.59375 -2.09375q-0.5625 -1.375 -0.5625 -3.375q0 -3.046875 1.25 -4.578125q1.25 -1.53125 3.296875 -1.53125q2.078125 0 3.3125 1.53125q1.25 1.53125 1.25 4.578125q0 2.0 -0.578125 3.375q-0.5625 1.375 -1.578125 2.09375q-1.015625 0.71875 -2.40625 0.71875zm0 -2.125q0.59375 0 1.0625 -0.375q0.484375 -0.375 0.765625 -1.265625q0.28125 -0.890625 0.28125 -2.421875q0 -1.546875 -0.28125 -2.40625q-0.28125 -0.875 -0.765625 -1.21875q-0.46875 -0.34375 -1.0625 -0.34375q-0.578125 0 -1.0625 0.34375q-0.484375 0.34375 -0.765625 1.21875q-0.28125 0.859375 -0.28125 2.40625q0 1.53125 0.28125 2.421875q0.28125 0.890625 0.765625 1.265625q0.484375 0.375 1.0625 0.375zm0 -2.6875q-0.578125 0 -0.984375 -0.390625q-0.40625 -0.390625 -0.40625 -1.015625q0 -0.65625 0.40625 -1.03125q0.40625 -0.390625 0.984375 -0.390625q0.59375 0 1.0 0.390625q0.40625 0.375 0.40625 1.03125q0 0.625 -0.40625 1.015625q-0.40625 0.390625 -1.0 0.390625z" fill-rule="nonzero"/><path fill="#000000" fill-opacity="0.0" d="m9.574803 401.46194l64.0 0l0 42.015747l-64.0 0z" fill-rule="evenodd"/><path fill="#000000" d="m41.571674 428.60068q-1.359375 0 -2.390625 -0.71875q-1.015625 -0.71875 -1.59375 -2.09375q-0.5625 -1.375 -0.5625 -3.375q0 -3.046875 1.25 -4.578125q1.25 -1.53125 3.296875 -1.53125q2.078125 0 3.3125 1.53125q1.25 1.53125 1.25 4.578125q0 2.0 -0.578125 3.375q-0.5625 1.375 -1.578125 2.09375q-1.015625 0.71875 -2.40625 0.71875zm0 -2.125q0.59375 0 1.0625 -0.375q0.484375 -0.375 0.765625 -1.265625q0.28125 -0.890625 0.28125 -2.421875q0 -1.546875 -0.28125 -2.40625q-0.28125 -0.875 -0.765625 -1.21875q-0.46875 -0.34375 -1.0625 -0.34375q-0.578125 0 -1.0625 0.34375q-0.484375 0.34375 -0.765625 1.21875q-0.28125 0.859375 -0.28125 2.40625q0 1.53125 0.28125 2.421875q0.28125 0.890625 0.765625 1.265625q0.484375 0.375 1.0625 0.375zm0 -2.6875q-0.578125 0 -0.984375 -0.390625q-0.40625 -0.390625 -0.40625 -1.015625q0 -0.65625 0.40625 -1.03125q0.40625 -0.390625 0.984375 -0.390625q0.59375 0 1.0 0.390625q0.40625 0.375 0.40625 1.03125q0 0.625 -0.40625 1.015625q-0.40625 0.390625 -1.0 0.390625z" fill-rule="nonzero"/><path fill="#000000" fill-opacity="0.0" d="m73.57481 401.46194l63.999992 0l0 42.015747l-63.999992 0z" fill-rule="evenodd"/><path fill="#000000" d="m105.57168 428.60068q-1.359375 0 -2.390625 -0.71875q-1.015625 -0.71875 -1.59375 -2.09375q-0.5625 -1.375 -0.5625 -3.375q0 -3.046875 1.25 -4.578125q1.25 -1.53125 3.296875 -1.53125q2.078125 0 3.3125 1.53125q1.25 1.53125 1.25 4.578125q0 2.0 -0.578125 3.375q-0.5625 1.375 -1.578125 2.09375q-1.015625 0.71875 -2.40625 0.71875zm0 -2.125q0.59375 0 1.0625 -0.375q0.484375 -0.375 0.765625 -1.265625q0.28125 -0.890625 0.28125 -2.421875q0 -1.546875 -0.28125 -2.40625q-0.28125 -0.875 -0.765625 -1.21875q-0.46875 -0.34375 -1.0625 -0.34375q-0.578125 0 -1.0625 0.34375q-0.484375 0.34375 -0.765625 1.21875q-0.28125 0.859375 -0.28125 2.40625q0 1.53125 0.28125 2.421875q0.28125 0.890625 0.765625 1.265625q0.484375 0.375 1.0625 0.375zm0 -2.6875q-0.578125 0 -0.984375 -0.390625q-0.40625 -0.390625 -0.40625 -1.015625q0 -0.65625 0.40625 -1.03125q0.40625 -0.390625 0.984375 -0.390625q0.59375 0 1.0 0.390625q0.40625 0.375 0.40625 1.03125q0 0.625 -0.40625 1.015625q-0.40625 0.390625 -1.0 0.390625z" fill-rule="nonzero"/><path fill="#000000" fill-opacity="0.0" d="m137.5748 401.46194l64.0 0l0 42.015747l-64.0 0z" fill-rule="evenodd"/><path fill="#000000" d="m169.57167 428.60068q-1.359375 0 -2.390625 -0.71875q-1.015625 -0.71875 -1.59375 -2.09375q-0.5625 -1.375 -0.5625 -3.375q0 -3.046875 1.25 -4.578125q1.25 -1.53125 3.296875 -1.53125q2.078125 0 3.3125 1.53125q1.25 1.53125 1.25 4.578125q0 2.0 -0.578125 3.375q-0.5625 1.375 -1.578125 2.09375q-1.015625 0.71875 -2.40625 0.71875zm0 -2.125q0.59375 0 1.0625 -0.375q0.484375 -0.375 0.765625 -1.265625q0.28125 -0.890625 0.28125 -2.421875q0 -1.546875 -0.28125 -2.40625q-0.28125 -0.875 -0.765625 -1.21875q-0.46875 -0.34375 -1.0625 -0.34375q-0.578125 0 -1.0625 0.34375q-0.484375 0.34375 -0.765625 1.21875q-0.28125 0.859375 -0.28125 2.40625q0 1.53125 0.28125 2.421875q0.28125 0.890625 0.765625 1.265625q0.484375 0.375 1.0625 0.375zm0 -2.6875q-0.578125 0 -0.984375 -0.390625q-0.40625 -0.390625 -0.40625 -1.015625q0 -0.65625 0.40625 -1.03125q0.40625 -0.390625 0.984375 -0.390625q0.59375 0 1.0 0.390625q0.40625 0.375 0.40625 1.03125q0 0.625 -0.40625 1.015625q-0.40625 0.390625 -1.0 0.390625z" fill-rule="nonzero"/><path fill="#000000" fill-opacity="0.0" d="m201.5748 401.46194l64.0 0l0 42.015747l-64.0 0z" fill-rule="evenodd"/><path fill="#000000" d="m233.57167 428.60068q-1.359375 0 -2.390625 -0.71875q-1.015625 -0.71875 -1.59375 -2.09375q-0.5625 -1.375 -0.5625 -3.375q0 -3.046875 1.25 -4.578125q1.25 -1.53125 3.296875 -1.53125q2.078125 0 3.3125 1.53125q1.25 1.53125 1.25 4.578125q0 2.0 -0.578125 3.375q-0.5625 1.375 -1.578125 2.09375q-1.015625 0.71875 -2.40625 0.71875zm0 -2.125q0.59375 0 1.0625 -0.375q0.484375 -0.375 0.765625 -1.265625q0.28125 -0.890625 0.28125 -2.421875q0 -1.546875 -0.28125 -2.40625q-0.28125 -0.875 -0.765625 -1.21875q-0.46875 -0.34375 -1.0625 -0.34375q-0.578125 0 -1.0625 0.34375q-0.484375 0.34375 -0.765625 1.21875q-0.28125 0.859375 -0.28125 2.40625q0 1.53125 0.28125 2.421875q0.28125 0.890625 0.765625 1.265625q0.484375 0.375 1.0625 0.375zm0 -2.6875q-0.578125 0 -0.984375 -0.390625q-0.40625 -0.390625 -0.40625 -1.015625q0 -0.65625 0.40625 -1.03125q0.40625 -0.390625 0.984375 -0.390625q0.59375 0 1.0 0.390625q0.40625 0.375 0.40625 1.03125q0 0.625 -0.40625 1.015625q-0.40625 0.390625 -1.0 0.390625z" fill-rule="nonzero"/><path fill="#000000" fill-opacity="0.0" d="m265.5748 401.46194l64.0 0l0 42.015747l-64.0 0z" fill-rule="evenodd"/><path fill="#000000" d="m297.5717 428.60068q-1.359375 0 -2.390625 -0.71875q-1.015625 -0.71875 -1.59375 -2.09375q-0.5625 -1.375 -0.5625 -3.375q0 -3.046875 1.25 -4.578125q1.25 -1.53125 3.296875 -1.53125q2.078125 0 3.3125 1.53125q1.25 1.53125 1.25 4.578125q0 2.0 -0.578125 3.375q-0.5625 1.375 -1.578125 2.09375q-1.015625 0.71875 -2.40625 0.71875zm0 -2.125q0.59375 0 1.0625 -0.375q0.484375 -0.375 0.765625 -1.265625q0.28125 -0.890625 0.28125 -2.421875q0 -1.546875 -0.28125 -2.40625q-0.28125 -0.875 -0.765625 -1.21875q-0.46875 -0.34375 -1.0625 -0.34375q-0.578125 0 -1.0625 0.34375q-0.484375 0.34375 -0.765625 1.21875q-0.28125 0.859375 -0.28125 2.40625q0 1.53125 0.28125 2.421875q0.28125 0.890625 0.765625 1.265625q0.484375 0.375 1.0625 0.375zm0 -2.6875q-0.578125 0 -0.984375 -0.390625q-0.40625 -0.390625 -0.40625 -1.015625q0 -0.65625 0.40625 -1.03125q0.40625 -0.390625 0.984375 -0.390625q0.59375 0 1.0 0.390625q0.40625 0.375 0.40625 1.03125q0 0.625 -0.40625 1.015625q-0.40625 0.390625 -1.0 0.390625z" fill-rule="nonzero"/><path fill="#000000" fill-opacity="0.0" d="m329.5748 401.46194l64.0 0l0 42.015747l-64.0 0z" fill-rule="evenodd"/><path fill="#000000" d="m361.5717 428.60068q-1.359375 0 -2.390625 -0.71875q-1.015625 -0.71875 -1.59375 -2.09375q-0.5625 -1.375 -0.5625 -3.375q0 -3.046875 1.25 -4.578125q1.25 -1.53125 3.296875 -1.53125q2.078125 0 3.3125 1.53125q1.25 1.53125 1.25 4.578125q0 2.0 -0.578125 3.375q-0.5625 1.375 -1.578125 2.09375q-1.015625 0.71875 -2.40625 0.71875zm0 -2.125q0.59375 0 1.0625 -0.375q0.484375 -0.375 0.765625 -1.265625q0.28125 -0.890625 0.28125 -2.421875q0 -1.546875 -0.28125 -2.40625q-0.28125 -0.875 -0.765625 -1.21875q-0.46875 -0.34375 -1.0625 -0.34375q-0.578125 0 -1.0625 0.34375q-0.484375 0.34375 -0.765625 1.21875q-0.28125 0.859375 -0.28125 2.40625q0 1.53125 0.28125 2.421875q0.28125 0.890625 0.765625 1.265625q0.484375 0.375 1.0625 0.375zm0 -2.6875q-0.578125 0 -0.984375 -0.390625q-0.40625 -0.390625 -0.40625 -1.015625q0 -0.65625 0.40625 -1.03125q0.40625 -0.390625 0.984375 -0.390625q0.59375 0 1.0 0.390625q0.40625 0.375 0.40625 1.03125q0 0.625 -0.40625 1.015625q-0.40625 0.390625 -1.0 0.390625z" fill-rule="nonzero"/><path fill="#000000" fill-opacity="0.0" d="m393.5748 401.46194l64.0 0l0 42.015747l-64.0 0z" fill-rule="evenodd"/><path fill="#000000" d="m425.5717 428.60068q-1.359375 0 -2.390625 -0.71875q-1.015625 -0.71875 -1.59375 -2.09375q-0.5625 -1.375 -0.5625 -3.375q0 -3.046875 1.25 -4.578125q1.25 -1.53125 3.296875 -1.53125q2.078125 0 3.3125 1.53125q1.25 1.53125 1.25 4.578125q0 2.0 -0.578125 3.375q-0.5625 1.375 -1.578125 2.09375q-1.015625 0.71875 -2.40625 0.71875zm0 -2.125q0.59375 0 1.0625 -0.375q0.484375 -0.375 0.765625 -1.265625q0.28125 -0.890625 0.28125 -2.421875q0 -1.546875 -0.28125 -2.40625q-0.28125 -0.875 -0.765625 -1.21875q-0.46875 -0.34375 -1.0625 -0.34375q-0.578125 0 -1.0625 0.34375q-0.484375 0.34375 -0.765625 1.21875q-0.28125 0.859375 -0.28125 2.40625q0 1.53125 0.28125 2.421875q0.28125 0.890625 0.765625 1.265625q0.484375 0.375 1.0625 0.375zm0 -2.6875q-0.578125 0 -0.984375 -0.390625q-0.40625 -0.390625 -0.40625 -1.015625q0 -0.65625 0.40625 -1.03125q0.40625 -0.390625 0.984375 -0.390625q0.59375 0 1.0 0.390625q0.40625 0.375 0.40625 1.03125q0 0.625 -0.40625 1.015625q-0.40625 0.390625 -1.0 0.390625z" fill-rule="nonzero"/><path fill="#000000" fill-opacity="0.0" d="m457.5748 401.46194l64.00003 0l0 42.015747l-64.00003 0z" fill-rule="evenodd"/><path fill="#000000" d="m489.5717 428.60068q-1.359375 0 -2.390625 -0.71875q-1.015625 -0.71875 -1.59375 -2.09375q-0.5625 -1.375 -0.5625 -3.375q0 -3.046875 1.25 -4.578125q1.25 -1.53125 3.296875 -1.53125q2.078125 0 3.3125 1.53125q1.25 1.53125 1.25 4.578125q0 2.0 -0.578125 3.375q-0.5625 1.375 -1.578125 2.09375q-1.015625 0.71875 -2.40625 0.71875zm0 -2.125q0.59375 0 1.0625 -0.375q0.484375 -0.375 0.765625 -1.265625q0.28125 -0.890625 0.28125 -2.421875q0 -1.546875 -0.28125 -2.40625q-0.28125 -0.875 -0.765625 -1.21875q-0.46875 -0.34375 -1.0625 -0.34375q-0.578125 0 -1.0625 0.34375q-0.484375 0.34375 -0.765625 1.21875q-0.28125 0.859375 -0.28125 2.40625q0 1.53125 0.28125 2.421875q0.28125 0.890625 0.765625 1.265625q0.484375 0.375 1.0625 0.375zm0 -2.6875q-0.578125 0 -0.984375 -0.390625q-0.40625 -0.390625 -0.40625 -1.015625q0 -0.65625 0.40625 -1.03125q0.40625 -0.390625 0.984375 -0.390625q0.59375 0 1.0 0.390625q0.40625 0.375 0.40625 1.03125q0 0.625 -0.40625 1.015625q-0.40625 0.390625 -1.0 0.390625z" fill-rule="nonzero"/><path fill="#000000" fill-opacity="0.0" d="m9.574803 465.87665l64.0 0l0 42.015747l-64.0 0z" fill-rule="evenodd"/><path fill="#000000" d="m41.571674 493.01538q-1.359375 0 -2.390625 -0.71875q-1.015625 -0.71875 -1.59375 -2.09375q-0.5625 -1.375 -0.5625 -3.375q0 -3.046875 1.25 -4.578125q1.25 -1.53125 3.296875 -1.53125q2.078125 0 3.3125 1.53125q1.25 1.53125 1.25 4.578125q0 2.0 -0.578125 3.375q-0.5625 1.375 -1.578125 2.09375q-1.015625 0.71875 -2.40625 0.71875zm0 -2.125q0.59375 0 1.0625 -0.375q0.484375 -0.375 0.765625 -1.265625q0.28125 -0.890625 0.28125 -2.421875q0 -1.546875 -0.28125 -2.40625q-0.28125 -0.875 -0.765625 -1.21875q-0.46875 -0.34375 -1.0625 -0.34375q-0.578125 0 -1.0625 0.34375q-0.484375 0.34375 -0.765625 1.21875q-0.28125 0.859375 -0.28125 2.40625q0 1.53125 0.28125 2.421875q0.28125 0.890625 0.765625 1.265625q0.484375 0.375 1.0625 0.375zm0 -2.6875q-0.578125 0 -0.984375 -0.390625q-0.40625 -0.390625 -0.40625 -1.015625q0 -0.65625 0.40625 -1.03125q0.40625 -0.390625 0.984375 -0.390625q0.59375 0 1.0 0.390625q0.40625 0.375 0.40625 1.03125q0 0.625 -0.40625 1.015625q-0.40625 0.390625 -1.0 0.390625z" fill-rule="nonzero"/><path fill="#000000" fill-opacity="0.0" d="m73.57481 465.87665l63.999992 0l0 42.015747l-63.999992 0z" fill-rule="evenodd"/><path fill="#000000" d="m105.57168 493.01538q-1.359375 0 -2.390625 -0.71875q-1.015625 -0.71875 -1.59375 -2.09375q-0.5625 -1.375 -0.5625 -3.375q0 -3.046875 1.25 -4.578125q1.25 -1.53125 3.296875 -1.53125q2.078125 0 3.3125 1.53125q1.25 1.53125 1.25 4.578125q0 2.0 -0.578125 3.375q-0.5625 1.375 -1.578125 2.09375q-1.015625 0.71875 -2.40625 0.71875zm0 -2.125q0.59375 0 1.0625 -0.375q0.484375 -0.375 0.765625 -1.265625q0.28125 -0.890625 0.28125 -2.421875q0 -1.546875 -0.28125 -2.40625q-0.28125 -0.875 -0.765625 -1.21875q-0.46875 -0.34375 -1.0625 -0.34375q-0.578125 0 -1.0625 0.34375q-0.484375 0.34375 -0.765625 1.21875q-0.28125 0.859375 -0.28125 2.40625q0 1.53125 0.28125 2.421875q0.28125 0.890625 0.765625 1.265625q0.484375 0.375 1.0625 0.375zm0 -2.6875q-0.578125 0 -0.984375 -0.390625q-0.40625 -0.390625 -0.40625 -1.015625q0 -0.65625 0.40625 -1.03125q0.40625 -0.390625 0.984375 -0.390625q0.59375 0 1.0 0.390625q0.40625 0.375 0.40625 1.03125q0 0.625 -0.40625 1.015625q-0.40625 0.390625 -1.0 0.390625z" fill-rule="nonzero"/><path fill="#000000" fill-opacity="0.0" d="m137.5748 465.87665l64.0 0l0 42.015747l-64.0 0z" fill-rule="evenodd"/><path fill="#000000" d="m169.57167 493.01538q-1.359375 0 -2.390625 -0.71875q-1.015625 -0.71875 -1.59375 -2.09375q-0.5625 -1.375 -0.5625 -3.375q0 -3.046875 1.25 -4.578125q1.25 -1.53125 3.296875 -1.53125q2.078125 0 3.3125 1.53125q1.25 1.53125 1.25 4.578125q0 2.0 -0.578125 3.375q-0.5625 1.375 -1.578125 2.09375q-1.015625 0.71875 -2.40625 0.71875zm0 -2.125q0.59375 0 1.0625 -0.375q0.484375 -0.375 0.765625 -1.265625q0.28125 -0.890625 0.28125 -2.421875q0 -1.546875 -0.28125 -2.40625q-0.28125 -0.875 -0.765625 -1.21875q-0.46875 -0.34375 -1.0625 -0.34375q-0.578125 0 -1.0625 0.34375q-0.484375 0.34375 -0.765625 1.21875q-0.28125 0.859375 -0.28125 2.40625q0 1.53125 0.28125 2.421875q0.28125 0.890625 0.765625 1.265625q0.484375 0.375 1.0625 0.375zm0 -2.6875q-0.578125 0 -0.984375 -0.390625q-0.40625 -0.390625 -0.40625 -1.015625q0 -0.65625 0.40625 -1.03125q0.40625 -0.390625 0.984375 -0.390625q0.59375 0 1.0 0.390625q0.40625 0.375 0.40625 1.03125q0 0.625 -0.40625 1.015625q-0.40625 0.390625 -1.0 0.390625z" fill-rule="nonzero"/><path fill="#000000" fill-opacity="0.0" d="m201.5748 465.87665l64.0 0l0 42.015747l-64.0 0z" fill-rule="evenodd"/><path fill="#000000" d="m233.57167 493.01538q-1.359375 0 -2.390625 -0.71875q-1.015625 -0.71875 -1.59375 -2.09375q-0.5625 -1.375 -0.5625 -3.375q0 -3.046875 1.25 -4.578125q1.25 -1.53125 3.296875 -1.53125q2.078125 0 3.3125 1.53125q1.25 1.53125 1.25 4.578125q0 2.0 -0.578125 3.375q-0.5625 1.375 -1.578125 2.09375q-1.015625 0.71875 -2.40625 0.71875zm0 -2.125q0.59375 0 1.0625 -0.375q0.484375 -0.375 0.765625 -1.265625q0.28125 -0.890625 0.28125 -2.421875q0 -1.546875 -0.28125 -2.40625q-0.28125 -0.875 -0.765625 -1.21875q-0.46875 -0.34375 -1.0625 -0.34375q-0.578125 0 -1.0625 0.34375q-0.484375 0.34375 -0.765625 1.21875q-0.28125 0.859375 -0.28125 2.40625q0 1.53125 0.28125 2.421875q0.28125 0.890625 0.765625 1.265625q0.484375 0.375 1.0625 0.375zm0 -2.6875q-0.578125 0 -0.984375 -0.390625q-0.40625 -0.390625 -0.40625 -1.015625q0 -0.65625 0.40625 -1.03125q0.40625 -0.390625 0.984375 -0.390625q0.59375 0 1.0 0.390625q0.40625 0.375 0.40625 1.03125q0 0.625 -0.40625 1.015625q-0.40625 0.390625 -1.0 0.390625z" fill-rule="nonzero"/><path fill="#000000" fill-opacity="0.0" d="m265.5748 465.87665l64.0 0l0 42.015747l-64.0 0z" fill-rule="evenodd"/><path fill="#000000" d="m297.5717 493.01538q-1.359375 0 -2.390625 -0.71875q-1.015625 -0.71875 -1.59375 -2.09375q-0.5625 -1.375 -0.5625 -3.375q0 -3.046875 1.25 -4.578125q1.25 -1.53125 3.296875 -1.53125q2.078125 0 3.3125 1.53125q1.25 1.53125 1.25 4.578125q0 2.0 -0.578125 3.375q-0.5625 1.375 -1.578125 2.09375q-1.015625 0.71875 -2.40625 0.71875zm0 -2.125q0.59375 0 1.0625 -0.375q0.484375 -0.375 0.765625 -1.265625q0.28125 -0.890625 0.28125 -2.421875q0 -1.546875 -0.28125 -2.40625q-0.28125 -0.875 -0.765625 -1.21875q-0.46875 -0.34375 -1.0625 -0.34375q-0.578125 0 -1.0625 0.34375q-0.484375 0.34375 -0.765625 1.21875q-0.28125 0.859375 -0.28125 2.40625q0 1.53125 0.28125 2.421875q0.28125 0.890625 0.765625 1.265625q0.484375 0.375 1.0625 0.375zm0 -2.6875q-0.578125 0 -0.984375 -0.390625q-0.40625 -0.390625 -0.40625 -1.015625q0 -0.65625 0.40625 -1.03125q0.40625 -0.390625 0.984375 -0.390625q0.59375 0 1.0 0.390625q0.40625 0.375 0.40625 1.03125q0 0.625 -0.40625 1.015625q-0.40625 0.390625 -1.0 0.390625z" fill-rule="nonzero"/><path fill="#000000" fill-opacity="0.0" d="m329.5748 465.87665l64.0 0l0 42.015747l-64.0 0z" fill-rule="evenodd"/><path fill="#000000" d="m361.5717 493.01538q-1.359375 0 -2.390625 -0.71875q-1.015625 -0.71875 -1.59375 -2.09375q-0.5625 -1.375 -0.5625 -3.375q0 -3.046875 1.25 -4.578125q1.25 -1.53125 3.296875 -1.53125q2.078125 0 3.3125 1.53125q1.25 1.53125 1.25 4.578125q0 2.0 -0.578125 3.375q-0.5625 1.375 -1.578125 2.09375q-1.015625 0.71875 -2.40625 0.71875zm0 -2.125q0.59375 0 1.0625 -0.375q0.484375 -0.375 0.765625 -1.265625q0.28125 -0.890625 0.28125 -2.421875q0 -1.546875 -0.28125 -2.40625q-0.28125 -0.875 -0.765625 -1.21875q-0.46875 -0.34375 -1.0625 -0.34375q-0.578125 0 -1.0625 0.34375q-0.484375 0.34375 -0.765625 1.21875q-0.28125 0.859375 -0.28125 2.40625q0 1.53125 0.28125 2.421875q0.28125 0.890625 0.765625 1.265625q0.484375 0.375 1.0625 0.375zm0 -2.6875q-0.578125 0 -0.984375 -0.390625q-0.40625 -0.390625 -0.40625 -1.015625q0 -0.65625 0.40625 -1.03125q0.40625 -0.390625 0.984375 -0.390625q0.59375 0 1.0 0.390625q0.40625 0.375 0.40625 1.03125q0 0.625 -0.40625 1.015625q-0.40625 0.390625 -1.0 0.390625z" fill-rule="nonzero"/><path fill="#000000" fill-opacity="0.0" d="m393.5748 465.87665l64.0 0l0 42.015747l-64.0 0z" fill-rule="evenodd"/><path fill="#000000" d="m425.5717 493.01538q-1.359375 0 -2.390625 -0.71875q-1.015625 -0.71875 -1.59375 -2.09375q-0.5625 -1.375 -0.5625 -3.375q0 -3.046875 1.25 -4.578125q1.25 -1.53125 3.296875 -1.53125q2.078125 0 3.3125 1.53125q1.25 1.53125 1.25 4.578125q0 2.0 -0.578125 3.375q-0.5625 1.375 -1.578125 2.09375q-1.015625 0.71875 -2.40625 0.71875zm0 -2.125q0.59375 0 1.0625 -0.375q0.484375 -0.375 0.765625 -1.265625q0.28125 -0.890625 0.28125 -2.421875q0 -1.546875 -0.28125 -2.40625q-0.28125 -0.875 -0.765625 -1.21875q-0.46875 -0.34375 -1.0625 -0.34375q-0.578125 0 -1.0625 0.34375q-0.484375 0.34375 -0.765625 1.21875q-0.28125 0.859375 -0.28125 2.40625q0 1.53125 0.28125 2.421875q0.28125 0.890625 0.765625 1.265625q0.484375 0.375 1.0625 0.375zm0 -2.6875q-0.578125 0 -0.984375 -0.390625q-0.40625 -0.390625 -0.40625 -1.015625q0 -0.65625 0.40625 -1.03125q0.40625 -0.390625 0.984375 -0.390625q0.59375 0 1.0 0.390625q0.40625 0.375 0.40625 1.03125q0 0.625 -0.40625 1.015625q-0.40625 0.390625 -1.0 0.390625z" fill-rule="nonzero"/><path fill="#000000" fill-opacity="0.0" d="m456.0 465.87665l64.0 0l0 42.015747l-64.0 0z" fill-rule="evenodd"/><path fill="#000000" d="m487.9969 493.01538q-1.359375 0 -2.390625 -0.71875q-1.015625 -0.71875 -1.59375 -2.09375q-0.5625 -1.375 -0.5625 -3.375q0 -3.046875 1.25 -4.578125q1.25 -1.53125 3.296875 -1.53125q2.078125 0 3.3125 1.53125q1.25 1.53125 1.25 4.578125q0 2.0 -0.578125 3.375q-0.5625 1.375 -1.578125 2.09375q-1.015625 0.71875 -2.40625 0.71875zm0 -2.125q0.59375 0 1.0625 -0.375q0.484375 -0.375 0.765625 -1.265625q0.28125 -0.890625 0.28125 -2.421875q0 -1.546875 -0.28125 -2.40625q-0.28125 -0.875 -0.765625 -1.21875q-0.46875 -0.34375 -1.0625 -0.34375q-0.578125 0 -1.0625 0.34375q-0.484375 0.34375 -0.765625 1.21875q-0.28125 0.859375 -0.28125 2.40625q0 1.53125 0.28125 2.421875q0.28125 0.890625 0.765625 1.265625q0.484375 0.375 1.0625 0.375zm0 -2.6875q-0.578125 0 -0.984375 -0.390625q-0.40625 -0.390625 -0.40625 -1.015625q0 -0.65625 0.40625 -1.03125q0.40625 -0.390625 0.984375 -0.390625q0.59375 0 1.0 0.390625q0.40625 0.375 0.40625 1.03125q0 0.625 -0.40625 1.015625q-0.40625 0.390625 -1.0 0.390625z" fill-rule="nonzero"/></g></svg>